$MeshFormat
4.1 0 8
$EndMeshFormat
$PhysicalNames
4
1 1 "Boundary_u_1"
1 2 "Boundary_u_0"
1 3 "Boundary_v_0"
2 4 "Surface"
$EndPhysicalNames
$Entities
6 5 1 0
1 0 10 0 0 
2 10 0 0 0 
3 100 0 0 0 
4 100 100 0 0 
5 0 100 0 0 
6 0 0 0 0 
1 0 8.881784197001252e-16 0 10 10 0 0 2 1 -2 
2 10 0 0 100 0 0 1 3 2 2 -3 
3 100 0 0 100 100 0 1 1 2 3 -4 
4 0 100 0 100 100 0 0 2 4 -5 
5 0 10 0 0 100 0 1 2 2 5 -1 
1 0 0 0 100 100 0 1 4 5 1 2 3 4 5 
$EndEntities
$Nodes
11 1202 1 1202
0 1 0 1
1
0 10 0
0 2 0 1
2
10 0 0
0 3 0 1
3
100 0 0
0 4 0 1
4
100 100 0
0 5 0 1
5
0 100 0
1 1 0 7
6
7
8
9
10
11
12
1.95090322536687 9.80785280299685 0
3.8268343348773 9.238795320462739 0
5.555702344180853 8.314696113681087 0
7.071067827788014 7.071067795942936 0
8.314696132136948 5.555702316559705 0
9.238795329571554 3.826834312886675 0
9.807852805236108 1.950903214109354 0
1 2 0 31
13
14
15
16
17
18
19
20
21
22
23
24
25
26
27
28
29
30
31
32
33
34
35
36
37
38
39
40
41
42
43
11.97074393442882 0 0
13.9846409894946 0 0
16.04263606495227 0 0
18.14569641917589 0 0
20.2948074139064 0 0
22.49097769429171 0 0
24.73523781180736 0 0
27.02864034394217 0 0
29.37226287488514 0 0
31.76720355570046 0 0
34.21458619315367 0 0
36.71556015659202 0 0
39.27129815338579 0 0
41.8829992715441 0 0
44.55188985415604 0 0
47.27922105942132 0 0
50.06627309383204 0 0
52.91435328008215 0 0
55.82479894538041 0 0
58.79897447863 0 0
61.83827638863109 0 0
64.94413033420378 0 0
68.11799311919606 0 0
71.36135519519401 0 0
74.67573730836706 0 0
78.06269548130265 0 0
81.52381828948894 0 0
85.06072810028286 0 0
88.67508829935093 0 0
92.368591812444 0 0
96.14297216158556 0 0
1 3 0 24
44
45
46
47
48
49
50
51
52
53
54
55
56
57
58
59
60
61
62
63
64
65
66
67
100 3.999999999984052 0
100 7.999999999968399 0
100 11.99999999995462 0
100 15.99999999993488 0
100 19.99999999991412 0
100 23.99999999989335 0
100 27.99999999987259 0
100 31.99999999985316 0
100 35.99999999984654 0
100 39.99999999983999 0
100 43.99999999983343 0
100 47.99999999982686 0
100 51.99999999982031 0
100 55.99999999981375 0
100 59.99999999980719 0
100 63.99999999980319 0
100 67.99999999982487 0
100 71.99999999984675 0
100 75.99999999986865 0
100 79.99999999989055 0
100 83.99999999991243 0
100 87.99999999993432 0
100 91.9999999999562 0
100 95.99999999997809 0
1 4 0 24
68
69
70
71
72
73
74
75
76
77
78
79
80
81
82
83
84
85
86
87
88
89
90
91
96.00000000002153 100 0
92.00000000004304 100 0
88.00000000006457 100 0
84.0000000000861 100 0
80.00000000010763 100 0
76.00000000012915 100 0
72.00000000015068 100 0
68.00000000017221 100 0
64.00000000019351 100 0
60.00000000018917 100 0
56.00000000018228 100 0
52.0000000001754 100 0
48.00000000016851 100 0
44.00000000016162 100 0
40.00000000015473 100 0
36.00000000014784 100 0
32.00000000014091 100 0
28.00000000012115 100 0
24.00000000010006 100 0
20.000000000079 100 0
16.00000000005828 100 0
12.00000000004392 100 0
8.000000000029905 100 0
4.000000000015735 100 0
1 5 0 31
92
93
94
95
96
97
98
99
100
101
102
103
104
105
106
107
108
109
110
111
112
113
114
115
116
117
118
119
120
121
122
0 96.1429721615978 0
0 92.36859181246797 0
0 88.67508829938618 0
0 85.0607281003289 0
0 81.52381828954525 0
0 78.06269548136873 0
0 74.67573730844258 0
0 71.36135519527846 0
0 68.11799311928905 0
0 64.94413033430477 0
0 61.83827638875674 0
0 58.79897447878636 0
0 55.82479894556613 0
0 52.91435328026323 0
0 50.06627309399605 0
0 47.27922105956888 0
0 44.55188985428779 0
0 41.88299927166071 0
0 39.27129815348786 0
0 36.71556015668008 0
0 34.21458619322829 0
0 31.76720355576211 0
0 29.37226287493431 0
0 27.02864034397941 0
0 24.73523781183314 0
0 22.49097769430652 0
0 20.29480741391446 0
0 18.14569641918218 0
0 16.04263606495688 0
0 13.98464098949761 0
0 11.97074393443032 0
2 1 0 1080
123
124
125
126
127
128
129
130
131
132
133
134
135
136
137
138
139
140
141
142
143
144
145
146
147
148
149
150
151
152
153
154
155
156
157
158
159
160
161
162
163
164
165
166
167
168
169
170
171
172
173
174
175
176
177
178
179
180
181
182
183
184
185
186
187
188
189
190
191
192
193
194
195
196
197
198
199
200
201
202
203
204
205
206
207
208
209
210
211
212
213
214
215
216
217
218
219
220
221
222
223
224
225
226
227
228
229
230
231
232
233
234
235
236
237
238
239
240
241
242
243
244
245
246
247
248
249
250
251
252
253
254
255
256
257
258
259
260
261
262
263
264
265
266
267
268
269
270
271
272
273
274
275
276
277
278
279
280
281
282
283
284
285
286
287
288
289
290
291
292
293
294
295
296
297
298
299
300
301
302
303
304
305
306
307
308
309
310
311
312
313
314
315
316
317
318
319
320
321
322
323
324
325
326
327
328
329
330
331
332
333
334
335
336
337
338
339
340
341
342
343
344
345
346
347
348
349
350
351
352
353
354
355
356
357
358
359
360
361
362
363
364
365
366
367
368
369
370
371
372
373
374
375
376
377
378
379
380
381
382
383
384
385
386
387
388
389
390
391
392
393
394
395
396
397
398
399
400
401
402
403
404
405
406
407
408
409
410
411
412
413
414
415
416
417
418
419
420
421
422
423
424
425
426
427
428
429
430
431
432
433
434
435
436
437
438
439
440
441
442
443
444
445
446
447
448
449
450
451
452
453
454
455
456
457
458
459
460
461
462
463
464
465
466
467
468
469
470
471
472
473
474
475
476
477
478
479
480
481
482
483
484
485
486
487
488
489
490
491
492
493
494
495
496
497
498
499
500
501
502
503
504
505
506
507
508
509
510
511
512
513
514
515
516
517
518
519
520
521
522
523
524
525
526
527
528
529
530
531
532
533
534
535
536
537
538
539
540
541
542
543
544
545
546
547
548
549
550
551
552
553
554
555
556
557
558
559
560
561
562
563
564
565
566
567
568
569
570
571
572
573
574
575
576
577
578
579
580
581
582
583
584
585
586
587
588
589
590
591
592
593
594
595
596
597
598
599
600
601
602
603
604
605
606
607
608
609
610
611
612
613
614
615
616
617
618
619
620
621
622
623
624
625
626
627
628
629
630
631
632
633
634
635
636
637
638
639
640
641
642
643
644
645
646
647
648
649
650
651
652
653
654
655
656
657
658
659
660
661
662
663
664
665
666
667
668
669
670
671
672
673
674
675
676
677
678
679
680
681
682
683
684
685
686
687
688
689
690
691
692
693
694
695
696
697
698
699
700
701
702
703
704
705
706
707
708
709
710
711
712
713
714
715
716
717
718
719
720
721
722
723
724
725
726
727
728
729
730
731
732
733
734
735
736
737
738
739
740
741
742
743
744
745
746
747
748
749
750
751
752
753
754
755
756
757
758
759
760
761
762
763
764
765
766
767
768
769
770
771
772
773
774
775
776
777
778
779
780
781
782
783
784
785
786
787
788
789
790
791
792
793
794
795
796
797
798
799
800
801
802
803
804
805
806
807
808
809
810
811
812
813
814
815
816
817
818
819
820
821
822
823
824
825
826
827
828
829
830
831
832
833
834
835
836
837
838
839
840
841
842
843
844
845
846
847
848
849
850
851
852
853
854
855
856
857
858
859
860
861
862
863
864
865
866
867
868
869
870
871
872
873
874
875
876
877
878
879
880
881
882
883
884
885
886
887
888
889
890
891
892
893
894
895
896
897
898
899
900
901
902
903
904
905
906
907
908
909
910
911
912
913
914
915
916
917
918
919
920
921
922
923
924
925
926
927
928
929
930
931
932
933
934
935
936
937
938
939
940
941
942
943
944
945
946
947
948
949
950
951
952
953
954
955
956
957
958
959
960
961
962
963
964
965
966
967
968
969
970
971
972
973
974
975
976
977
978
979
980
981
982
983
984
985
986
987
988
989
990
991
992
993
994
995
996
997
998
999
1000
1001
1002
1003
1004
1005
1006
1007
1008
1009
1010
1011
1012
1013
1014
1015
1016
1017
1018
1019
1020
1021
1022
1023
1024
1025
1026
1027
1028
1029
1030
1031
1032
1033
1034
1035
1036
1037
1038
1039
1040
1041
1042
1043
1044
1045
1046
1047
1048
1049
1050
1051
1052
1053
1054
1055
1056
1057
1058
1059
1060
1061
1062
1063
1064
1065
1066
1067
1068
1069
1070
1071
1072
1073
1074
1075
1076
1077
1078
1079
1080
1081
1082
1083
1084
1085
1086
1087
1088
1089
1090
1091
1092
1093
1094
1095
1096
1097
1098
1099
1100
1101
1102
1103
1104
1105
1106
1107
1108
1109
1110
1111
1112
1113
1114
1115
1116
1117
1118
1119
1120
1121
1122
1123
1124
1125
1126
1127
1128
1129
1130
1131
1132
1133
1134
1135
1136
1137
1138
1139
1140
1141
1142
1143
1144
1145
1146
1147
1148
1149
1150
1151
1152
1153
1154
1155
1156
1157
1158
1159
1160
1161
1162
1163
1164
1165
1166
1167
1168
1169
1170
1171
1172
1173
1174
1175
1176
1177
1178
1179
1180
1181
1182
1183
1184
1185
1186
1187
1188
1189
1190
1191
1192
1193
1194
1195
1196
1197
1198
1199
1200
1201
1202
48.30939828049862 2.322090820458416 0
2.368201837058908 48.63296336910872 0
35.37575055447064 2.266057421812036 0
2.227541290652773 35.31378910346896 0
96.82295937272279 49.99117193824122 0
46.1388900194482 96.63231551357622 0
63.54975695435421 2.476284846898948 0
1.884813345681582 23.52181820773916 0
2.57080787147363 63.22784594222807 0
23.61310775304954 1.922762764159438 0
62.04561521267364 96.17976348284895 0
96.61070717385405 34.08954497986813 0
96.31898548304821 66.04313292134927 0
29.75272799522802 96.60007941216861 0
9.282449310662665 7.304273170727862 0
76.18063163309905 3.128336342755528 0
2.764546218249198 76.41607679831506 0
78.02414515711476 96.54820672515291 0
96.05845124452139 21.84766115490696 0
1.733996530125198 17.09478396027863 0
96.62497607656178 78.15410275911867 0
18.06187026174348 96.82517053654023 0
16.85524435316621 1.741499580434358 0
86.77311868016547 3.009874470084789 0
5.491561728219036 10.27398933291902 0
2.955848198070698 86.75172547212421 0
70.02750857253045 2.872589614742389 0
2.760011757241744 69.77523201744042 0
54.50143419106855 2.305688241133343 0
2.925851546302252 54.4827918843625 0
40.74352107875924 2.085879518342523 0
2.237566773041298 40.57714871257428 0
28.1905822165913 1.949716167229374 0
2.167724928993444 28.27202112987907 0
96.63828827385379 13.75354501515657 0
53.87733580464045 96.60043785746849 0
37.81057541154637 96.75422567467871 0
96.58785683322755 58.24270845157382 0
96.11747248734517 42.3083582972867 0
69.91422955097869 96.66857798978516 0
85.99731534940453 96.53609762300394 0
96.53603640005896 85.99734074434639 0
10.11117625198345 96.44459727663678 0
11.15001389202676 3.573427045442949 0
1.742629265591279 13.14999452532238 0
96.53589838487594 5.999999999976217 0
96.16309634203408 93.65400594682937 0
3.233688568593556 94.25578198703292 0
7.390398798499438 9.005226955354591 0
9.435959173725841 9.435959132696482 0
10.91295063869179 8.23470811961336 0
11.37873815361517 10.1301284073007 0
9.669428248693583 11.61346431229299 0
11.77408936965023 12.25582121224961 0
13.65490601460421 10.75544296709732 0
13.9823711326049 13.00218248317818 0
12.26337773705168 14.45980649858545 0
14.49796083895923 15.12118231323681 0
16.14329507622567 13.7008648375933 0
16.73880038253026 15.79760771367026 0
14.99449692750569 17.39068125531057 0
17.25840691315413 18.12259853738637 0
19.05254039851961 16.45955341777821 0
19.57885780087465 18.86226268623651 0
21.3817280040501 17.19309183944281 0
21.94321560954668 19.62147000659822 0
20.10978814415792 21.24000207366749 0
22.51096198023059 22.05126283096207 0
24.21715588131362 20.40093524614918 0
24.92487614336402 22.87503810010222 0
22.92852548389884 24.45225755252726 0
25.38538314419807 25.37740050028523 0
27.41049265856758 23.73635421322183 0
28.04668805489452 26.24399543224363 0
25.85538546126342 27.92868312526977 0
28.66146442270094 28.88049148279957 0
30.66039963029592 27.11432195727052 0
31.31260510144615 29.73237972504187 0
29.24620127461401 31.61357252416212 0
31.92755826439001 32.47317460296303 0
34.02564377325417 30.54246515545535 0
34.65612200591997 33.34088730244527 0
36.77626248493225 31.3791020296069 0
37.43205697818755 34.22246651631984 0
35.33089257632194 36.52286197375744 0
38.07740610193412 37.10032457774824 0
40.27540814322364 35.0874677257065 0
40.94262296561192 38.01525234842359 0
38.71178998506782 40.05544291555822 0
41.62089084043838 40.99347675113083 0
39.5079076677722 43.03682032695995 0
42.329354160528 44.01092533196703 0
43.16773895476771 35.96078562363924 0
40.02108211137129 46.11731000728861 0
43.00360784622714 47.08270741805477 0
40.65122145310897 49.2199446832407 0
43.69810872464475 50.19844059387817 0
46.06179419351494 48.02217536848461 0
46.78237426242264 51.18471923538773 0
49.18394665699137 48.96511825056807 0
49.9129987261617 52.18063396004633 0
41.31792122927003 52.36749946654019 0
52.37353730477336 49.89990819256917 0
53.10161968332731 53.19217679762096 0
55.59806755197802 50.87475869542577 0
56.33416436549508 54.22011969566792 0
38.25095718774128 51.37602320973272 0
38.91479952739456 54.53627422767931 0
53.81589837425637 56.52513204233856 0
57.0880072890067 57.57888756084072 0
35.82320770242728 53.54806649607486 0
36.49751428575252 56.7198850915676 0
58.83674394919505 51.90918879870113 0
58.08395563507081 48.54696794973872 0
54.52604517018074 59.91340945173948 0
57.84848451594971 60.97593110831665 0
61.32397953813197 49.52927981634714 0
60.59059019670741 46.19065128465812 0
33.39543148108719 55.72868040819819 0
34.0818807869824 58.92003223542969 0
55.25878625290662 63.33526150429869 0
58.62316216968117 64.41913612723994 0
63.84850468499052 47.17450544665662 0
63.11502237198992 43.82389965851116 0
30.97747263584829 57.90091941829046 0
31.61668224918701 61.11739245760729 0
30.30220706593172 54.73732961581221 0
66.42961890356452 44.85548046491644 0
65.66090218669787 41.45390673724873 0
67.33617343538326 47.98684215336511 0
55.97856263542928 66.82440338246941 0
59.40170701115086 67.90736204416601 0
27.90516755642582 56.88090319954836 0
27.24559160500858 53.74936914276613 0
62.04706569784749 65.47862819906226 0
62.85708822364474 68.97594146863045 0
65.54355383300826 66.50058392724787 0
66.34612050174115 70.08062120628099 0
68.99488503250873 42.49282640216939 0
68.21021209957934 39.0927013692324 0
64.8910235383302 38.06910363005802 0
67.40868814862088 35.72171945930906 0
64.13135412478435 34.72055966615797 0
66.61098070094465 32.38196394995855 0
63.36937099212225 31.39933193745999 0
65.97599890304036 29.2345402070772 0
62.94801014274849 27.83708315063506 0
69.11151822217336 30.0853766670042 0
24.88123773529624 55.86723931207437 0
24.23443646806512 52.78951844732687 0
34.80734400808511 62.13400665596083 0
32.28305806461384 64.3911020181242 0
35.54604817693759 65.41569317938992 0
33.00722359027143 67.70505577312667 0
36.26758403331721 68.77368713142758 0
29.74493048800926 66.64833821931695 0
30.45666105671923 69.98940194376806 0
27.19926606803052 68.92271801070778 0
68.37703127650155 26.82717164752378 0
69.06854778271094 67.55238092895922 0
69.86901631135535 71.21978363742103 0
27.90355103926044 72.28580426795716 0
56.742416203944 70.32965443484841 0
71.55618169627675 27.6998443082756 0
71.57625286364446 40.10498402451162 0
24.63391232664983 71.19962274661603 0
70.69662921256142 24.29183462054681 0
21.90346481625738 54.87190487632685 0
21.28514703579022 51.8353740716077 0
23.5581647125853 49.77443471290286 0
20.63167360780514 48.83621951584121 0
25.33270808467302 74.59079362689766 0
28.72396523964542 75.47560493524685 0
72.61732474759387 68.6744786681036 0
73.43563191864828 72.36042373282626 0
74.03142091233856 25.30683908838927 0
67.11977156235007 73.70772070301663 0
73.25753937138876 21.97946386976833 0
69.74499584298817 20.74385900572273 0
22.08954957095094 73.56387816825627 0
20.91422768478464 70.10030099090865 0
22.87659936618164 46.81799135859736 0
20.04656538733139 45.88813754736162 0
60.24900289633857 30.35074922753421 0
59.44082234390041 27.17381109544931 0
22.7524320701327 76.92643375318077 0
76.6008845127725 22.97284848929714 0
77.5012771968692 26.13496738241396 0
19.01069846699632 53.87080778880301 0
76.19706715364656 69.81833251363021 0
75.37168530296137 66.11831282216713 0
77.03281305491551 73.51026989011429 0
75.79798166841171 19.59323870198889 0
22.23578771036578 43.92344372886885 0
19.43218961216418 43.03178527018746 0
17.2744808224127 44.9584310794653 0
16.67194631382385 42.1316389974263 0
18.80815834095026 40.23586148295011 0
16.11083828923482 39.36954977894651 0
79.16339042741146 20.58681029758971 0
57.07801685040793 29.39448650707019 0
56.34022031522678 26.2511847753886 0
58.64851812461634 24.05925731009992 0
55.62743000424098 23.14602833276645 0
57.89717569089666 20.98300528388581 0
54.91557662672807 20.08589376454462 0
52.65637868417392 22.1864996385026 0
51.97275815336609 19.15850021101302 0
49.74335071356269 21.23993307018413 0
49.03503027126639 18.32446320823549 0
46.8595736741317 20.36424911340382 0
46.17864122619514 17.48302540785937 0
44.04363276652931 19.48643505955892 0
43.39196836942362 16.6666314310852 0
57.18904301994209 17.93044946677545 0
41.33587801079767 18.48406943932439 0
40.63344504147565 15.84959074473146 0
53.30185075166719 69.2357351851944 0
54.06850828474668 72.7544048794944 0
19.48487188343897 75.89392728173004 0
20.14712070674783 79.27444818169594 0
25.0616361344721 44.80440075695608 0
18.18154342361987 37.49300907790391 0
15.55299500220585 36.64339394140679 0
38.63949642198215 17.61211889685504 0
37.94417306659938 15.05864234997882 0
42.6859460467666 13.92072806063168 0
14.53776398483691 44.0559934623504 0
78.96863437362499 67.24875435460334 0
78.12739079355366 63.56400764496551 0
59.83244150278735 42.81274216211747 0
48.32724396141526 15.45820867157906 0
74.54006716027391 62.44539008511978 0
77.28203797570535 59.9037627424178 0
19.59130775104592 56.93171469433018 0
16.68035391146329 55.92738009013786 0
38.82991553670926 66.44207122467867 0
39.50078351500427 69.76903980472993 0
47.50477742532719 23.30765653638915 0
78.34185434700983 17.08444742253552 0
74.93843998645107 16.12332786669266 0
20.85249294831172 14.77206396133005 0
74.2337842281155 76.07469389845244 0
77.86821731755364 77.23186078772868 0
75.03006810088353 79.82612138864451 0
78.70981291215466 80.99326579125912 0
80.66047790164086 74.65103572929738 0
44.54374463271912 41.91561683395093 0
42.10472687449334 55.44398661747833 0
17.5800225578352 34.80386839547509 0
15.00578648490298 33.97093924512409 0
23.1920076082797 15.5070634437745 0
22.64012215536654 13.10050140148887 0
24.99586014968266 13.82465715050111 0
72.36750544672451 43.55508342541441 0
74.99790393939838 41.10079541021635 0
75.79084985384338 44.6391609517427 0
78.46226901483062 42.13602650283232 0
79.32493267052379 45.54450070543466 0
17.24007660332094 58.96431405549461 0
15.46072931198647 19.73543553095736 0
13.20519376482788 18.98393680754005 0
13.66688339216592 21.34368379102851 0
62.12676130273642 52.71282173481533 0
23.34796287488413 80.27765436639616 0
13.532558130662 38.55607275704683 0
11.37908440832287 20.5914198186297 0
11.84563131146786 22.958337856649 0
14.16723246707119 23.72302481815841 0
14.32301449877365 57.9872139599872 0
14.9424311709359 60.97783835928183 0
13.82333806335486 54.89576417243524 0
35.96403183319633 16.86423854134828 0
35.30994480952118 14.28399696463971 0
16.77947277550639 78.17573476017549 0
16.00862489759768 74.92220345929071 0
17.50749919824199 81.62937427450423 0
24.4519004857146 11.41533562988363 0
22.20279203734818 10.67328746688477 0
81.74300676244374 18.15133452453193 0
82.57486590878652 21.63542508766464 0
80.88771025869218 60.99661291016884 0
20.86059867805312 38.32218165333445 0
12.33455197711044 25.34203489385445 0
37.29511684846949 12.43134423624755 0
34.71567702132657 11.66889959222101 0
29.82547855356318 34.37834514411743 0
36.7791180589013 44.79663952701493 0
52.00687702239914 62.24068434256456 0
81.9680668295471 43.19388684373426 0
81.12791311124701 39.60552243399992 0
82.78110033530449 46.83121896317581 0
41.74764543114271 21.56132349086933 0
17.07731591345189 32.2316625112941 0
80.90039587215506 14.47068850187833 0
14.1091307336983 80.51909822994891 0
42.48307670927686 33.01654439989615 0
45.39851113121431 33.88237532521743 0
14.84885029049313 84.01107268080226 0
18.272627033913 85.14344161205358 0
75.85728044662957 83.60070288774516 0
72.1691271109927 82.41688547370507 0
33.38378748171119 15.88851964968943 0
36.7434195619407 19.6563258253235 0
10.01370755809916 24.56935760558288 0
10.49588173334132 26.96074785360183 0
20.06278389691591 60.00353114148352 0
79.55590941757607 84.7742758426653 0
82.42194285697116 82.14939573512578 0
73.70446233006383 58.8184393182436 0
57.80962654076339 32.60463447372746 0
85.22489249604206 19.13620580304302 0
86.10136027282667 22.57543557115444 0
11.43306904715778 56.98375720793638 0
10.90643286784025 53.95607032674728 0
29.59565955694433 51.61131904266339 0
53.99072317120027 28.44235463186714 0
51.63769457224809 46.72751175091833 0
60.1027418712819 18.73947619239932 0
59.4693391077127 15.74928087066682 0
56.47272278925775 14.88978827152711 0
58.70846759672118 12.74430991135964 0
61.70616696071561 13.58590739913047 0
55.7636084375934 11.87942977063171 0
50.6271447734831 71.64143586523967 0
51.3730756009861 75.1998891204228 0
54.85820594899838 76.33113428707902 0
52.13150126674902 78.8005586532248 0
55.65670565375832 79.94732213831097 0
48.62212253770058 77.64876986268555 0
49.38124020113942 81.27013560314153 0
45.83975463491686 80.12313108095364 0
46.60245079799074 83.74865600010939 0
43.05333375876078 82.60366503161103 0
50.19567585048464 84.71334732843744 0
84.65586706905043 40.70149107770109 0
83.81269668436275 37.06327281059531 0
36.20096218064253 28.50232788518355 0
19.58843732434891 32.98654055918568 0
74.15530634598746 37.65486510044176 0
36.65427089374894 9.83094451357749 0
34.11628585390447 9.097682720483768 0
26.68204287747842 12.1680352441949 0
26.23874476766495 9.731737610436202 0
36.97714585900632 72.02730118718405 0
64.76531286422377 62.85216148640427 0
57.96371966847921 9.763531129570012 0
41.96118736494945 67.51793659933969 0
76.72687946203386 48.34602749603605 0
43.82268738849461 86.24909093536276 0
40.28171382191224 85.08867734857319 0
83.29783881462973 85.90505907004685 0
80.02872996421351 57.30823725520536 0
83.65301675585883 58.3905203133389 0
84.52031333496745 62.11402791353125 0
86.10354790914786 83.31548809031473 0
86.79229117903606 87.22125314539007 0
15.11670923648619 46.87014163504809 0
12.37863535520533 46.01734966885136 0
39.50829644331478 81.4485464327127 0
36.74390300753359 83.91832148472372 0
27.09904548269509 33.39151260047291 0
27.71040034051495 36.28464489720007 0
72.99135012390197 86.20767509566687 0
69.35952430752911 84.95285971803381 0
8.19151627421879 26.16174002326338 0
8.653851438861773 28.56818964080179 0
7.748296629694552 23.77352776234321 0
19.20149717568202 30.37292394599121 0
15.56409794920831 87.58095330141117 0
44.70988589647479 30.91722774344753 0
87.33420100086035 38.16858535783016 0
86.45709964514512 34.53386862442025 0
11.46011571121548 82.87514132746982 0
27.36838032054045 14.56054205044149 0
26.49496168019408 65.59766787109614 0
10.7342148862118 79.40832591685938 0
58.4007857257573 77.44620078963609 0
59.14209201797632 81.11284132020552 0
41.35645527962973 64.10333848106761 0
88.23697799167624 41.81786302555466 0
42.77175859719247 71.16133492975835 0
82.9465874615168 33.4419032157422 0
19.087024718786 88.86511305433024 0
36.01041860752921 80.29425493701304 0
33.24542734163482 82.74383292991493 0
33.98160490552925 86.38476488472756 0
30.45996213143988 85.20267306656228 0
87.12523353084194 59.54322144770848 0
86.40053564554127 55.76804263547515 0
55.0475972137007 8.92153624320002 0
10.9573615632969 29.34424751206606 0
9.058007330340704 30.95274899692081 0
87.97281795540187 63.29808082209687 0
14.67839264691132 26.13871185328543 0
47.64925717459445 31.78977079224051 0
48.35339204120706 34.8044642329569 0
52.87571226170153 11.0011348361684 0
52.18509633432315 8.107610593959924 0
50.00312213472769 10.22322550572127 0
6.753584536300519 30.19219374935712 0
7.218669123073965 32.65013008328796 0
9.843489605899991 33.40632012240931 0
7.768913780318859 35.03832301111724 0
28.54860275093213 10.7311188420252 0
27.92093449632272 8.121833080844246 0
25.69091032041636 7.331726884493136 0
44.29769902955626 65.38840624248691 0
85.71934098083986 30.96947970697622 0
10.92631954755191 18.24861209754286 0
88.74514622583752 20.16663508946731 0
87.87458959152991 16.57887370500933 0
89.61182723885219 23.71572028488006 0
8.566485034640698 56.00047918586804 0
9.126363957191225 58.9932946233703 0
7.997292183464866 53.06077130958228 0
11.8520511401537 43.15226535406894 0
9.699202492826451 45.10536916379576 0
9.187296059325622 42.2725171463568 0
7.126909288638146 44.01006844114859 0
7.54835936480232 46.80268034605338 0
61.60831570088511 37.05589564020366 0
41.052113398279 88.77598355983581 0
9.141644642443417 19.82622929627578 0
8.733955648469063 17.55627665801232 0
6.98214199893845 19.07231384965442 0
6.503585672309509 16.85890817454694 0
8.10920367942766 81.7374863541321 0
24.41796781094882 41.93429475558477 0
27.25359178296348 42.79880025742861 0
35.17391357390675 50.38212082585566 0
39.23803255800458 10.57181929056762 0
38.58137240344549 7.974763408552432 0
41.16373805696389 8.711720132088594 0
68.54080652035321 81.28178689028181 0
41.79364862427508 30.0697908731508 0
27.89363769390283 45.69796035481695 0
30.10690096372614 43.67280263694421 0
80.56633605080582 88.14868693104093 0
85.22115921592939 79.55670880238435 0
89.27418869146881 31.89644413714618 0
21.60535064936405 31.15432841238928 0
85.35534076434617 65.87298195573308 0
89.02660046443812 67.03013426432284 0
6.462570007707795 57.95037199188846 0
56.44046577422878 83.62358072591771 0
59.92559664020633 84.90363273118709 0
57.21016567564051 87.37400988019414 0
60.83346525076162 88.64910289496419 0
25.46552891600968 58.98595276736528 0
31.20357073373657 88.96829808914657 0
27.85686128425073 87.90742468053952 0
22.19302880748842 33.92235193095729 0
60.40847135860282 58.50968074168088 0
43.8830987167913 61.8278180183782 0
30.66034579463241 36.80087628828443 0
72.39827074075684 30.89287157218316 0
47.48688656261452 54.35135847246485 0
86.21762162212566 69.60514102441502 0
89.93409595844089 70.81149036911654 0
89.30416984804066 80.84888349527438 0
4.876776046574039 31.79684974709051 0
5.945923510344988 25.39801136055879 0
70.25608909905034 88.67777127139956 0
57.19898205274751 6.952135880396515 0
60.48144703871891 7.462751580602689 0
43.99946062224997 27.98190301616716 0
41.1232219060642 27.10683767126738 0
16.50328225631245 24.48770588511016 0
61.76434270929835 78.69807141894188 0
74.12604210058556 89.74470172387808 0
10.33370787836413 51.04257015835925 0
8.167556801158458 15.35955377296635 0
6.030442707965286 14.61402832736285 0
8.856241312002922 85.3885274035008 0
34.75242658088881 90.09028337102421 0
30.76618946512776 46.61413198946931 0
50.51934904336917 32.74447718880887 0
51.314521267388 35.8285060288882 0
49.03719098163685 37.85286173548901 0
52.02382558663846 38.80465428701678 0
49.72584206838415 40.95072118905992 0
49.34117787959202 7.38824226267408 0
46.71092559740644 9.43911960194629 0
46.80617935204575 6.476285765060266 0
44.36020297197241 89.81461225162022 0
5.656700143845449 22.93939026760625 0
83.63865891793995 24.7146767350293 0
70.97694193752885 61.33509480714537 0
70.17943160077553 57.72650827302639 0
72.86471817279934 55.23780703388117 0
69.42540698046258 54.2338771683028 0
66.62265210048955 56.74811757449124 0
58.07862689301446 90.97300791052071 0
53.93568378527031 89.73549565280456 0
38.73182083245749 77.96540629705117 0
6.651783693489238 41.37881447380411 0
8.728566863773441 39.67992947202109 0
6.054932645215441 38.66025484562647 0
54.20945436428203 36.78441549732315 0
29.88251292261124 81.767463375142 0
40.57285503219597 60.85320974672499 0
49.87310977274527 68.10883890008466 0
90.75114306522636 39.10703934140678 0
90.25548953653553 57.28280370466618 0
89.2126266907886 53.2937663169691 0
52.95652542457395 41.68150704246627 0
45.1591638755117 76.58709217367982 0
6.963490420463868 60.97443130743347 0
9.734375910736517 62.00833403506088 0
7.518869468857794 64.02371346227144 0
10.36425835147841 65.07149656881575 0
8.022073817979766 67.05638983910133 0
11.02215928928474 68.11586008080906 0
8.628092937368873 69.85907842196826 0
13.39698288800282 66.07343800669346 0
14.04786638050804 69.24390442889691 0
16.50519242970758 67.08885912477236 0
91.285659513204 17.6641412546289 0
90.40763912069974 14.03164839052013 0
86.94459477105437 12.96552867822413 0
89.59673863112431 10.39642157305322 0
86.06477150369088 9.364599419384053 0
21.24125329437963 28.49832076905435 0
21.66402011500386 86.2813352005157 0
22.59105258218037 89.87358778228995 0
61.00174460310694 74.98478746446506 0
71.92011466720952 51.93774040469755 0
58.92200150267976 4.765278687235202 0
87.07958318594264 73.42225713639313 0
90.50365061643308 74.65770958544246 0
93.34110913243873 72.38064454400345 0
4.911983630343077 18.40954832862691 0
10.09589162363458 36.02226827198775 0
27.48606815225333 5.752193803787138 0
29.64090712925967 6.816629654886534 0
85.62869519632386 52.16000292919612 0
88.81565893275254 49.70143853780998 0
14.46082906414395 31.33429177422657 0
16.29378843136719 91.2045157652304 0
12.8439846302296 90.00566898688125 0
35.34868784399668 77.05705787023325 0
16.88578098903438 26.97466358653609 0
18.75189858328187 25.16363166673791 0
49.80289508979823 29.63586961983112 0
25.20243402331521 5.158976201672158 0
23.42885099066948 6.615395615254267 0
92.68549128292932 54.13576212286053 0
65.93762528740456 83.7636442336656 0
28.38500988227218 91.3544771861537 0
40.48324737753322 6.214127322086396 0
37.88574516606364 5.536759188317661 0
7.543501818282043 78.44634241190438 0
10.10181307413763 76.09044740052217 0
41.81529075951573 92.51150979658644 0
32.3085928654631 10.98080652736652 0
51.46690251646307 5.343935407440004 0
82.18571235879989 30.10225903722129 0
79.51001533514759 32.48862626254487 0
4.364207123803596 43.03529074770744 0
5.01750158169592 80.80831098593995 0
75.71868911462369 52.22945643194714 0
10.30579769504315 5.314453278605564 0
12.33834046952768 5.070065962160534 0
13.39508244925776 3.153075717835918 0
14.36655198258607 4.935063775340195 0
13.49979682449151 6.778654667715071 0
15.59460856991368 6.652078733465031 0
16.49564146504529 4.763602935672409 0
17.69113143452327 6.527427635721219 0
16.79439684454386 8.499912146964387 0
18.92601797700381 4.687946741068064 0
18.99494909424845 8.339836098809103 0
18.24012392557458 10.31845906806285 0
43.22633681822713 25.01270821820459 0
46.82249368555801 63.13426680499069 0
46.08155412656259 59.58266635381757 0
3.571677058180811 10.93306755215589 0
6.189190331772658 75.19792240697066 0
17.16101803252758 70.31520110082566 0
33.22133132908745 44.44843512798358 0
32.43516249795283 41.66573422483666 0
7.679976848815164 13.23468861738736 0
92.00383774853083 42.32391943265979 0
26.57017468163203 39.99430265288531 0
42.91712402200433 6.913731164812633 0
43.75655588189229 9.485245219609247 0
12.95394787449767 48.77023721165193 0
15.69138883309312 49.74382565773741 0
92.17181997050012 63.94511191810473 0
4.276350310811465 59.91328248254163 0
88.34059943533393 28.66333159553393 0
92.05857633378675 29.50688000776329 0
24.34656958247691 32.32093126608726 0
46.77037900422599 70.64019733149418 0
7.226249386432962 49.75799183588195 0
5.153039782163262 52.25354292783371 0
24.96827563065033 35.11830430078771 0
13.31943485334578 93.60955831195248 0
5.139800600158543 65.59283827287013 0
5.339569428269397 12.38722222158813 0
3.725632630044309 14.16888951867342 0
50.64307381064883 13.15275887504475 0
88.6342109027146 6.173939491891698 0
92.81018940474536 7.660735129533429 0
9.903200521602793 13.84473732343954 0
91.62559451737374 4.139868045947606 0
12.4639285563733 33.2589445878483 0
4.46736396947064 29.32319555828416 0
4.534033372544157 16.36806450522418 0
22.92545218277985 4.090007739576625 0
21.23821564300013 5.660110743839067 0
13.3761294008818 51.80264097079712 0
40.46342604499377 24.22237642415112 0
38.77059523446231 21.96954967525934 0
36.1464954098539 22.58258995948173 0
33.9466667402351 20.88324335291961 0
33.31044379668331 23.45157232896555 0
31.3305577146177 21.8203161310177 0
31.76002806139873 19.16672297381057 0
29.31856788744714 20.10942006822499 0
29.71193999735064 17.78358118186036 0
27.3426743218557 18.48642198882043 0
35.41665374272333 25.53470779811747 0
2.257695815791704 30.97264331984453 0
21.35707196438298 8.118202411935679 0
5.311694456317683 20.57492155879342 0
3.395007932599382 19.93931235069689 0
10.03162981288797 92.57346634992496 0
31.63217763733875 8.387408564886996 0
33.61094441839455 6.561271442272585 0
14.78518292127567 28.66599875646709 0
61.69589689807675 92.14027072186218 0
64.59541176032879 89.68644955198238 0
65.05183506251542 93.35933259805581 0
65.69819887306735 53.52711228677617 0
34.87669002386945 42.46834563584979 0
34.59845130489312 39.69784732873072 0
7.412167338413741 11.09309230547421 0
23.63607986460011 39.24316152515921 0
13.38607399405577 77.13345710223395 0
12.63129517222966 74.01740988929873 0
83.48397512324912 11.93489517502024 0
82.56136373112517 8.431116843052834 0
80.03811513483811 10.90476927975728 0
79.13027926393701 7.623397101580996 0
76.65278188163433 9.882732610527819 0
81.33066028824265 5.42992759201907 0
77.46753519177553 13.40361081727978 0
73.94366762741694 12.78359148431884 0
73.21485181885936 9.244774381813901 0
70.75254362029933 11.75788398951686 0
69.9125926780799 8.516945754316684 0
67.52693931307581 10.76100611829068 0
68.28503310312126 14.04008534535353 0
66.71847525849923 7.722306533721352 0
64.53410358054521 9.806103781577889 0
72.26002576578246 6.115790192677243 0
63.64629825720838 6.930254313930258 0
71.60748839392068 15.28618125693262 0
68.9729984505763 17.35395913341121 0
65.38553393848052 16.3259385839305 0
66.26663296159495 19.6885340714304 0
67.01691650437829 23.54482274996409 0
63.77628580112623 22.021027316055 0
64.34323574075249 24.91300447545062 0
75.66779068643463 6.541643296392834 0
16.05146676876664 10.4388961530701 0
32.78493301881717 13.4431887239382 0
30.53669344828632 12.33132858504931 0
42.2923749982929 79.01963625302518 0
41.6624735926973 75.12903283614736 0
14.01244674368171 41.25479434631661 0
11.42912994711419 40.48323717900119 0
20.04527071901339 12.15792029020096 0
96.5359822702497 9.846960612518163 0
26.48757807611128 50.69549688778751 0
54.23639628112807 17.00368350346018 0
53.45070653817465 25.2412714826276 0
80.29156260913497 35.97869429730911 0
76.80870207161617 35.05509173518371 0
96.69256267393209 17.62572171142048 0
12.83521799911879 35.8201961782156 0
4.119978866114288 26.88403697668761 0
9.587936005140843 22.16792654292972 0
23.88884825041376 67.84158435400001 0
23.37779296474887 64.46808007554191 0
20.88126027117648 66.54236577237214 0
20.44621719203107 63.23038055547687 0
41.9541849873009 4.400272829046881 0
62.35608515423625 40.45382604900528 0
59.27338188664079 39.42515448344719 0
56.51565432133126 41.6101577240328 0
58.6435607205181 36.00333285795563 0
32.73233492338801 79.42134719952404 0
32.73907080006251 52.57702904541368 0
57.38409177777641 45.18693590270691 0
33.85036420453099 96.65848954920155 0
31.73245689344631 93.03298659055289 0
26.05701235261546 94.76841838467683 0
96.66895542388932 38.07157866957726 0
34.39187383345593 47.30081473917626 0
36.0244843839413 7.287216720239219 0
35.37734916779578 4.833724521097502 0
33.22096633799384 4.147152159010305 0
41.98989014693687 96.20515823385384 0
45.48395493067168 14.70183367601544 0
47.63971793295851 12.54165723606561 0
51.29171806914179 16.17764147642824 0
25.99701306945548 62.21806499485852 0
29.11390439837896 63.33418770846507 0
96.64120883471949 46.24279113893664 0
93.08810710282391 48.3710140948896 0
5.745175239150425 54.98457675656466 0
54.29424485785721 6.191321776714138 0
71.8097194535149 64.99365821167173 0
10.54168946043541 15.99758367171126 0
15.01363852722344 1.763181013251623 0
38.0504857690821 63.14344296920498 0
89.51285966087724 45.79400141462278 0
53.54720527491189 14.01740612221007 0
45.84316274048132 2.303730568143454 0
2.687419034243615 45.60471596439706 0
67.47781487395054 60.2655494009043 0
63.86107612268504 59.42302103283438 0
49.97441753552449 96.55066842770695 0
48.09447047451271 93.18948098950764 0
51.87210291179939 93.2000300386605 0
49.97270501714446 89.99358167492693 0
75.9272697172122 31.74720654054692 0
21.39289255409906 1.881561985419571 0
22.48627075309427 96.52749803463516 0
19.73946299631605 92.92848664841817 0
96.63582197622875 26.00970433013505 0
96.11417866590247 29.94626289726779 0
4.789169416758082 47.30160482354822 0
55.01113191518594 31.58470558833787 0
72.40451408829236 18.55879698741197 0
66.8939913216378 2.694392631208038 0
18.42018615487198 14.18647898454633 0
72.96717649159893 2.799741119251102 0
2.874842419401475 73.12716173705985 0
71.39054237878605 78.6617538823304 0
27.17846651127403 84.53549434630582 0
3.129575291938296 90.48974783318853 0
6.06295442242914 87.92616582197275 0
46.94513936404259 28.81035892254102 0
48.94072222005472 26.58335166474462 0
82.79416256053537 54.69398498799882 0
82.10722356935868 50.68697319209038 0
79.30735556437428 53.61227851787513 0
57.44287170602544 2.321899502754575 0
2.243666907410007 57.67868859954393 0
60.91976804143126 33.69708644202162 0
57.74620464338831 96.66406260618268 0
31.87380146911534 49.50082557217586 0
96.29691077499163 62.07358249778656 0
92.70280236317394 60.21054169608121 0
47.91872726455915 74.11016247820504 0
1.757055059064182 15.01363852722725 0
23.95647578982613 8.988774072089734 0
19.13832088924753 2.225329071822899 0
51.29294677686137 2.731525281982877 0
2.469830617800638 51.41827730500953 0
70.75262471788902 36.71190160557181 0
38.11849187007459 2.044294630754297 0
2.13973935094714 37.85800929026774 0
4.367196252544989 36.69496968454639 0
30.4653165445039 1.934354861253104 0
38.89124017859491 29.39244613972699 0
25.87911457619464 1.80402999485119 0
1.986760331639216 25.86628028805349 0
93.54161381452498 36.58292639582234 0
54.91234149307102 47.62311033676657 0
67.87467047919745 77.48762896287829 0
37.54469436974759 48.19880883205148 0
30.18970489072382 15.08368847307107 0
73.83484528430547 96.50367123789567 0
82.00506512490256 96.53889708303495 0
84.08476018916845 92.95876863839727 0
88.18226076275329 93.22793882775198 0
79.97935909974831 93.42650244341981 0
89.99287451954288 96.54932807703058 0
91.9795671748201 93.47592805538218 0
96.55087875620605 82.02521154690825 0
93.07207033477611 83.99982578311393 0
93.18950219490162 87.68077140564944 0
93.30604150554531 79.95950111703101 0
96.60789670601307 89.68813800656633 0
71.07244506327632 92.70916786612804 0
44.73031710128947 22.4003175091844 0
29.48590941082261 40.95679023734991 0
48.34864876051405 45.8851823705034 0
21.56513033618038 41.1151214026808 0
68.27364845748954 63.91657146038879 0
51.3874721226553 58.64791601550011 0
62.27761551051579 16.4592133909491 0
52.64932720788374 65.788370624663 0
10.07335387278465 48.07155042872665 0
6.355369765885166 27.75456121815881 0
7.404735646063398 21.39238487960046 0
39.95174856651138 13.20008244884515 0
76.48433218696333 56.18499688326169 0
5.583427424518494 84.31741487210115 0
73.17182196616875 46.97900651058983 0
28.51262813755087 60.07290342435583 0
77.64060951536909 38.58849924666386 0
76.807936584722 87.14459500170537 0
65.24332999251641 12.93361779717646 0
79.79581420419157 70.94347470684832 0
14.71022430675683 8.642790592617388 0
81.51407356567863 78.40103999091011 0
60.89119671506129 10.60460354895506 0
23.61982175476523 29.42801811849693 0
33.3575171343014 27.84375989141263 0
81.73594527587275 64.69566710275703 0
18.44887012292542 50.81005122199501 0
92.87449959888589 68.27662976093721 0
23.60482152548657 17.96109569060013 0
52.91637582674708 82.41591488701458 0
39.60861551974837 32.19463628073453 0
70.65390281307545 74.9186674694875 0
85.3913550019558 44.53634524963748 0
26.47141466308593 30.59386818621476 0
57.54121192516578 73.87587272073881 0
61.25892878816501 61.94309311592305 0
12.20493310425861 86.4185361068095 0
33.73981915978381 70.94860690702653 0
60.20240158128892 71.41477163173928 0
5.104356675550635 34.45957224175972 0
59.58308627871322 55.17785412214963 0
46.04050816043051 25.8324324368472 0
30.36193019213636 24.34243816227705 0
43.83464855086829 38.91964700493438 0
46.08676833764233 36.85744332162355 0
69.82900242177226 45.7565210895291 0
37.51073847678601 87.57982630139834 0
50.671728563424 55.3469313145642 0
25.72527099116487 47.72497618949593 0
45.28095169679733 44.96503524728292 0
44.41719013264672 53.29024817161462 0
32.62369158985703 35.13519261337139 0
84.39739917033276 15.53065713872155 0
31.28524849210652 73.11209078333484 0
17.76591859168299 20.47549269391862 0
69.92338833262167 33.35912250756887 0
15.94792732702179 22.09733859098031 0
20.17146903034166 35.65887857552213 0
92.27854346340558 21.24817086904042 0
22.5041523543844 57.92675218843043 0
12.71267582502353 27.71183680268668 0
17.86828133500899 47.8511344429081 0
80.05383895614929 23.81760174569167 0
11.99754732013323 59.98637743538479 0
25.65901038775702 16.5370239492288 0
20.79211373427744 82.73533851187742 0
26.03757708383264 77.80170760493606 0
26.8296738348643 20.97417241043663 0
37.190296580935 59.91233852740787 0
6.058462571782574 96.38108985104719 0
82.57216114190508 68.4034761767102 0
38.32414585055884 26.60604658038091 0
16.17179646645247 52.84174498365093 0
38.33344702814676 91.062962464809 0
53.6926662141223 86.14054487305513 0
5.982546664534111 71.60970509897004 0
76.13569312531986 93.14026535527634 0
29.36816318475122 4.224065026494686 0
93.23083433545092 11.69759144404377 0
39.76691115829054 57.66804768010579 0
6.311289887195563 92.24142803737263 0
41.91392277437659 11.32243322900529 0
73.32759365434723 34.23684317691603 0
84.86341454091507 5.868551178954062 0
44.68751553612078 12.04500422228948 0
15.66645799606022 64.03715599661265 0
96.43138414606115 54.15676245904587 0
42.92037817512814 58.59520217674055 0
83.42141487427132 72.14155964555489 0
12.7381730460553 16.7003004406545 0
12.68367560622451 63.02577340030823 0
1.748884284518152 21.22978058815468 0
84.26286948050796 75.84531675953981 0
47.65390930874793 87.4842569521503 0
46.77112585975524 39.8949823742991 0
93.86788913436239 96.79184314149055 0
63.66794917207994 72.53980471948836 0
93.13369783843753 24.71672148632757 0
3.148246025097029 33.10674985733179 0
3.891523526624761 24.420175507728 0
28.72368954206107 48.64078500606815 0
22.97558139892423 61.13879362052609 0
18.20498665649828 22.7975136019154 0
50.52303115067618 24.1646229699986 0
96.68267579953711 74.20105199866939 0
64.41350439385289 76.29209265639956 0
96.53621166898498 70.15024320410515 0
60.78436818644425 21.84695065241915 0
87.86537820905524 77.06363377825407 0
47.46811542486054 42.88601706370755 0
65.14527144901527 79.97538139230036 0
20.5981752347008 23.57516094782721 0
90.00518169134398 89.88548964272667 0
22.84389102211659 36.59074435300672 0
63.05004100604906 56.0164345821246 0
1.857838586217702 43.13040891012545 0
68.87707894422323 5.607270669378275 0
9.385172194833968 89.0922987844103 0
84.02669166667881 89.30838991067142 0
32.7785273303821 1.973003131153715 0
17.754082716868 62.0509300261764 0
79.65858556838369 2.751155490016751 0
90.02222235916571 35.53159452218097 0
20.84020535295508 3.812461168371814 0
89.60624054747865 84.90542672495202 0
11.64345440939623 1.686747425184843 0
3.648103948264501 22.10423308011973 0
35.96838209906362 93.59599813598507 0
75.06053795505831 28.49795238351753 0
23.21071880623877 26.93739603459334 0
93.36852859527328 32.54604406934585 0
64.87141818311258 50.32101718865392 0
61.54448461683867 24.83486569366234 0
18.59754445374777 72.78330371675156 0
54.29106515476565 44.48478348374336 0
66.22600467910647 96.71587892479187 0
43.26082358017237 2.212250111070783 0
48.96789204252097 4.756452857000065 0
49.47677681215492 64.98530043336631 0
68.32088698091985 51.11274613041917 0
20.16804154811352 9.921541067178671 0
60.42002827871988 2.393848626193003 0
78.6316556258041 29.27693560365606 0
50.73798190089107 43.76928715006648 0
62.57702388020319 82.48994955959751 0
54.53127042991806 39.41792412530318 0
46.87216787698542 67.20262780371995 0
45.22270529716236 56.40797206525505 0
14.11319867212196 97.03382703406676 0
33.92866118039169 18.29952681147837 0
55.58326876444448 93.43464390349884 0
9.213135657737746 72.95355018722267 0
94.5181766493636 2.956827178963891 0
2.250868755677712 66.53106172679692 0
44.61815975903037 4.909558494481815 0
26.80821838191209 3.695127027439267 0
44.85650046683732 73.52556394985696 0
2.618744425911623 83.0425424342494 0
63.47231164555063 86.22106757971795 0
4.40129820804277 49.87287605227643 0
83.20172091124644 2.843251455179112 0
8.360736737522162 37.30358136054833 0
11.74587576638355 70.94673790560626 0
23.86377259638414 83.78516038972906 0
91.71535220238833 51.36674960469999 0
48.31236422108486 57.49138506800145 0
23.28473015277553 92.98814417484832 0
12.61439410290579 8.510912735688748 0
53.24992200498055 33.66813904876368 0
37.96388065695644 24.17710072321399 0
4.662924404998671 40.44535974211225 0
66.83096742906227 87.29420919040996 0
84.64344575475312 27.79732690731624 0
15.03203745049904 72.03812675011163 0
78.85302977963234 50.620112986362 0
11.14953501411255 37.98220497754745 0
39.76392025171977 72.61612013253992 0
93.65106077896532 15.50036734830232 0
26.6497440852765 81.11939976952975 0
67.69184944372309 90.96908832600616 0
31.50143711617406 39.15479776926552 0
1.67197899196205 19.13852075543439 0
93.52276798839247 76.3608656952653 0
32.04118552952605 76.24526506980787 0
17.53525942950244 12.18723505360057 0
29.46387699956421 78.59460533281316 0
21.01066374591536 25.927550483906 0
5.644594261999695 68.56536814290448 0
85.70614878276209 48.28499671442209 0
25.70263714732378 37.62394764946161 0
81.10909813505259 26.97396123522141 0
51.54857457482549 27.39767349368166 0
32.52883837744631 25.63635682740708 0
37.86078664315486 74.83771785603648 0
34.56870415534689 73.8565710958389 0
65.4105028802943 5.078353816211251 0
62.07167248532924 4.851128645178559 0
16.92844546374126 29.49218042696961 0
19.00325654200575 27.73821181319919 0
11.63471670471006 31.35263882338604 0
44.92042493331199 93.25914908502932 0
15.39954151274849 3.4056582186814 0
1.56927059908009 11.38132491625614 0
24.72492400575647 87.24447097851106 0
49.01911978214078 60.81668913707015 0
52.35376596655993 30.57886992854839 0
12.91015321569002 29.68180273376649 0
70.78813353549745 48.92193719047413 0
5.29386373435306 62.74642229346895 0
93.94335815809016 39.83805472722334 0
56.05985477186201 34.66946068804668 0
28.60515074851664 38.4692265824078 0
63.09886304490726 19.18019003453057 0
78.24852609905545 90.43101679745698 0
29.19511062126779 22.34271072874272 0
39.44389087216437 4.04886044123291 0
2.432018135962497 79.68972480459519 0
28.05434198364553 16.49025152868443 0
31.43180289975004 5.644548174535815 0
18.25337196659168 65.15225857554483 0
87.17417468431729 25.66580953421681 0
19.53510480766322 6.540135171588784 0
25.48326504330845 90.68942053116987 0
56.03632312097545 4.519863438539778 0
11.51609689147585 6.649514413419558 0
74.02437681638933 49.73900080689519 0
78.11357390659862 5.021699405468731 0
93.61401805622572 57.08434510790389 0
3.177992302204527 17.91484332177705 0
2.700449812195583 97.32172888863204 0
97.439409439165 2.591365435784832 0
97.07179676971273 97.07179676970121 0
90.74074868548371 26.62335496712635 0
5.244214231347434 45.21459733358414 0
29.69957584805084 8.920938634574361 0
18.75487696286125 68.06954978858211 0
62.34347274356232 8.8363007194629 0
44.50830020795896 68.66104277215555 0
24.76530477234315 3.295421061953277 0
16.35412699307403 94.17099397436535 0
31.53704809652006 17.03092485050208 0
17.44685376926053 3.394504949469601 0
1.692594283948029 60.31862543377153 0
90.82083690747768 78.05092689049035 0
36.82528610542433 39.05570891213349 0
44.95740811336975 7.660381386174676 0
59.17717394577254 93.83984573738147 0
4.854505673385137 78.03642784408461 0
93.69230083211583 45.11828102739533 0
33.05690329578686 37.41451381581872 0
89.86903665391569 60.87279478479719 0
13.29737529437953 1.355594471959152 0
3.197888250706337 12.54900324799875 0
67.99127275991999 94.08440914095341 0
39.33102247582249 93.97704116564418 0
46.67358038001971 4.244616076022623 0
80.08616688462793 48.35435599011734 0
86.74283369785655 90.45339417856623 0
56.80073585521629 38.12732199173905 0
94.1256165821746 27.47166689403649 0
26.0000000001106 97.86614681659988 0
3.948142042456907 38.71399325951042 0
37.01397089074878 3.756392603017248 0
31.20493913867817 3.692721401773771 0
63.01899967899698 11.69291433163657 0
28.66508485759223 12.97494263895639 0
37.14019496302883 41.70635331393831 0
39.45320080379125 19.80150125710888 0
93.91914359596683 18.95504280478225 0
6.293526425840991 36.43404798494216 0
8.128139630962389 94.4101453787454 0
93.87246473908965 5.189357588605286 0
11.28007468463642 34.58784347967632 0
1.366637384886949 33.0215433917809 0
93.71457191370762 90.81757538123615 0
2.91762709150296 16.0600702975283 0
30.54512851001423 10.27032023078048 0
63.70658503472681 14.69722785689695 0
28.73193877372836 94.07003237099683 0
94.41523557527613 51.83968257999987 0
53.2462302623833 4.242760646875014 0
89.39687878931595 2.496872569107009 0
15.42729599582066 12.06949006144725 0
74.25519926144744 4.690421400262347 0
65.86188861178833 26.64720774045147 0
47.24606583114313 90.54785008297331 0
81.74702687490989 90.9483744269786 0
25.44112840599293 18.84497009558304 0
51.29110373629533 87.39317211307265 0
4.4465509660912 56.87053794914605 0
$EndNodes
$Elements
4 2369 1 2369
1 2 1 32
1 2 13 
2 13 14 
3 14 15 
4 15 16 
5 16 17 
6 17 18 
7 18 19 
8 19 20 
9 20 21 
10 21 22 
11 22 23 
12 23 24 
13 24 25 
14 25 26 
15 26 27 
16 27 28 
17 28 29 
18 29 30 
19 30 31 
20 31 32 
21 32 33 
22 33 34 
23 34 35 
24 35 36 
25 36 37 
26 37 38 
27 38 39 
28 39 40 
29 40 41 
30 41 42 
31 42 43 
32 43 3 
1 3 1 25
33 3 44 
34 44 45 
35 45 46 
36 46 47 
37 47 48 
38 48 49 
39 49 50 
40 50 51 
41 51 52 
42 52 53 
43 53 54 
44 54 55 
45 55 56 
46 56 57 
47 57 58 
48 58 59 
49 59 60 
50 60 61 
51 61 62 
52 62 63 
53 63 64 
54 64 65 
55 65 66 
56 66 67 
57 67 4 
1 5 1 32
58 5 92 
59 92 93 
60 93 94 
61 94 95 
62 95 96 
63 96 97 
64 97 98 
65 98 99 
66 99 100 
67 100 101 
68 101 102 
69 102 103 
70 103 104 
71 104 105 
72 105 106 
73 106 107 
74 107 108 
75 108 109 
76 109 110 
77 110 111 
78 111 112 
79 112 113 
80 113 114 
81 114 115 
82 115 116 
83 116 117 
84 117 118 
85 118 119 
86 119 120 
87 120 121 
88 121 122 
89 122 1 
2 1 2 2280
90 12 2 1038 
91 543 718 858 
92 909 1025 1037 
93 709 606 997 
94 945 842 1101 
95 2 13 1038 
96 900 912 989 
97 701 988 1064 
98 135 712 879 
99 835 660 842 
100 606 830 997 
101 701 139 864 
102 858 718 1072 
103 1025 479 1037 
104 497 899 1130 
105 175 705 761 
106 694 884 1036 
107 988 637 1064 
108 123 885 1050 
109 879 712 880 
110 885 679 1050 
111 415 697 736 
112 597 868 926 
113 716 484 720 
114 1110 665 1111 
115 952 126 1011 
116 741 740 955 
117 727 168 798 
118 701 864 988 
119 784 785 1125 
120 899 497 1178 
121 575 716 720 
122 114 156 747 
123 890 126 952 
124 289 281 786 
125 842 660 1101 
126 697 415 913 
127 908 583 910 
128 919 784 1125 
129 410 703 759 
130 194 197 1042 
131 172 175 761 
132 491 1110 1111 
133 703 410 824 
134 530 698 1059 
135 912 593 989 
136 705 175 728 
137 993 868 1030 
138 698 1051 1059 
139 751 993 1030 
140 176 179 728 
141 697 913 954 
142 794 504 1069 
143 125 826 827 
144 583 908 1037 
145 868 148 926 
146 955 740 1105 
147 113 114 747 
148 167 724 882 
149 132 733 853 
150 168 727 1184 
151 620 1074 1088 
152 594 710 735 
153 504 794 1089 
154 137 685 1137 
155 1049 844 1067 
156 599 824 878 
157 734 694 1036 
158 913 361 954 
159 125 827 1032 
160 758 615 1027 
161 606 522 830 
162 696 797 1097 
163 783 301 785 
164 780 149 863 
165 682 154 1083 
166 437 594 735 
167 154 682 1028 
168 694 734 1134 
169 1035 563 1043 
170 718 543 921 
171 150 1066 1100 
172 599 703 824 
173 746 460 937 
174 660 835 1077 
175 1066 722 1100 
176 171 172 761 
177 797 696 1053 
178 175 176 728 
179 705 596 723 
180 149 780 1029 
181 712 135 940 
182 152 719 836 
183 173 137 1137 
184 1074 656 1088 
185 394 437 735 
186 785 301 786 
187 1012 130 1039 
188 809 811 1014 
189 411 1051 1117 
190 1034 39 1073 
191 936 197 946 
192 758 1044 1052 
193 835 842 1161 
194 156 731 747 
195 547 595 839 
196 1044 252 1052 
197 301 289 786 
198 1020 787 1045 
199 471 684 1138 
200 661 1112 1119 
201 684 471 1087 
202 710 594 921 
203 301 783 860 
204 853 733 1036 
205 723 596 724 
206 746 937 1105 
207 900 162 912 
208 878 438 1013 
209 506 648 855 
210 682 845 1028 
211 662 506 855 
212 386 758 1027 
213 197 936 1042 
214 787 788 1045 
215 661 730 1112 
216 727 798 991 
217 812 1049 1067 
218 361 870 954 
219 786 281 1197 
220 716 936 946 
221 1046 398 1086 
222 705 723 761 
223 1051 698 1117 
224 522 725 830 
225 769 772 773 
226 884 694 1154 
227 724 167 1165 
228 702 303 1046 
229 702 1046 1086 
230 362 363 771 
231 540 481 921 
232 899 744 1130 
233 811 429 1014 
234 845 682 1146 
235 719 152 886 
236 129 1108 1109 
237 908 909 1037 
238 606 709 1158 
239 847 468 948 
240 303 702 1148 
241 870 361 1016 
242 773 780 789 
243 852 1041 1055 
244 725 354 830 
245 1047 440 1056 
246 971 141 1010 
247 748 695 1134 
248 484 716 946 
249 354 725 831 
250 1085 680 1103 
251 573 598 821 
252 609 1012 1039 
253 133 755 757 
254 609 749 923 
255 721 165 751 
256 769 773 789 
257 728 179 839 
258 490 609 923 
259 1093 914 1124 
260 861 149 1029 
261 417 362 771 
262 884 853 1036 
263 895 1035 1043 
264 769 771 772 
265 770 1034 1073 
266 1041 310 1055 
267 578 1093 1124 
268 777 774 782 
269 504 717 1069 
270 394 735 985 
271 595 728 839 
272 672 822 1135 
273 715 857 1043 
274 816 433 876 
275 599 878 1013 
276 706 161 1161 
277 672 573 821 
278 654 1017 1095 
279 160 879 880 
280 594 718 921 
281 139 701 1160 
282 726 146 1194 
283 861 1029 1108 
284 426 737 738 
285 330 332 831 
286 771 363 772 
287 846 468 847 
288 882 724 1188 
289 792 899 1178 
290 685 166 686 
291 760 1157 1179 
292 767 417 771 
293 146 726 996 
294 765 417 767 
295 783 782 860 
296 610 1085 1103 
297 781 588 1109 
298 401 748 883 
299 6 700 1115 
300 414 945 1101 
301 6 7 700 
302 161 706 1122 
303 147 171 761 
304 576 847 948 
305 759 760 1179 
306 842 706 1161 
307 717 504 1150 
308 617 850 851 
309 1081 600 1118 
310 171 137 172 
311 774 772 782 
312 1108 781 1109 
313 460 746 984 
314 982 170 993 
315 532 547 839 
316 543 540 921 
317 358 394 985 
318 731 156 806 
319 61 1017 1019 
320 549 655 732 
321 539 541 796 
322 906 169 1008 
323 624 992 1000 
324 852 803 995 
325 579 852 995 
326 541 620 796 
327 689 1080 1137 
328 695 748 1053 
329 415 736 737 
330 11 166 685 
331 653 654 1095 
332 165 721 1061 
333 690 693 933 
334 332 354 831 
335 384 532 1002 
336 398 763 764 
337 713 131 1155 
338 147 8 171 
339 777 782 783 
340 992 371 1000 
341 544 816 876 
342 137 10 685 
343 9 137 171 
344 193 194 1042 
345 141 856 1010 
346 762 1026 1102 
347 481 710 921 
348 788 786 1197 
349 629 815 1047 
350 468 846 917 
351 723 147 761 
352 796 620 1088 
353 405 762 916 
354 131 713 1121 
355 1018 897 1023 
356 868 597 1030 
357 133 757 1048 
358 575 720 1026 
359 629 1047 1056 
360 785 786 787 
361 822 1079 1135 
362 398 397 763 
363 798 157 991 
364 734 748 1134 
365 754 665 1110 
366 940 135 1019 
367 185 182 862 
368 1076 866 1116 
369 832 572 928 
370 544 814 816 
371 982 993 1183 
372 590 558 892 
373 400 401 883 
374 800 330 831 
375 523 731 922 
376 736 590 984 
377 840 145 1114 
378 773 772 774 
379 833 832 928 
380 462 803 929 
381 1026 720 1102 
382 532 839 1002 
383 740 746 1105 
384 282 259 917 
385 443 800 843 
386 729 726 1194 
387 166 12 1038 
388 417 765 965 
389 689 690 933 
390 227 225 896 
391 630 793 794 
392 246 353 813 
393 588 781 1149 
394 732 655 1141 
395 857 715 1172 
396 818 438 878 
397 813 353 814 
398 807 490 923 
399 544 813 814 
400 248 274 833 
401 615 847 1027 
402 859 1081 1118 
403 42 729 1194 
404 795 539 796 
405 678 408 791 
406 169 906 1187 
407 832 809 1014 
408 388 321 795 
409 762 551 916 
410 772 363 782 
411 380 378 929 
412 426 738 739 
413 824 553 878 
414 182 181 862 
415 674 825 826 
416 630 454 793 
417 678 791 792 
418 272 292 799 
419 731 806 922 
420 131 722 1066 
421 730 373 805 
422 1017 654 1019 
423 815 629 1058 
424 558 419 943 
425 838 282 917 
426 726 645 996 
427 546 389 807 
428 873 475 925 
429 569 1057 1071 
430 51 134 857 
431 596 549 732 
432 329 326 801 
433 397 418 763 
434 225 440 896 
435 498 808 809 
436 46 157 798 
437 1114 145 1154 
438 274 278 833 
439 321 319 795 
440 872 414 1101 
441 658 990 1131 
442 388 795 796 
443 782 363 860 
444 443 337 800 
445 1080 173 1137 
446 408 396 791 
447 722 131 1121 
448 259 468 917 
449 373 346 805 
450 389 390 807 
451 336 349 829 
452 553 233 818 
453 800 831 843 
454 521 679 837 
455 1131 990 1176 
456 48 141 804 
457 777 783 784 
458 498 280 808 
459 724 596 732 
460 687 840 1114 
461 674 555 825 
462 773 774 775 
463 791 425 899 
464 592 1018 1023 
465 595 549 596 
466 256 272 799 
467 363 315 860 
468 684 873 925 
469 865 897 944 
470 434 402 965 
471 130 1004 1039 
472 296 282 838 
473 999 160 1140 
474 866 574 1116 
475 547 548 549 
476 532 546 547 
477 630 794 1069 
478 251 246 813 
479 854 144 855 
480 590 892 984 
481 378 462 929 
482 334 336 829 
483 513 521 837 
484 508 623 817 
485 693 790 933 
486 364 185 862 
487 326 324 801 
488 240 236 819 
489 668 669 733 
490 134 52 823 
491 459 413 802 
492 159 83 820 
493 229 553 898 
494 359 275 841 
495 748 401 1053 
496 454 456 793 
497 826 753 827 
498 490 585 609 
499 806 156 894 
500 248 833 928 
501 897 299 944 
502 892 558 943 
503 87 144 854 
504 82 159 828 
505 657 529 668 
506 293 939 974 
507 808 303 810 
508 452 630 881 
509 464 678 752 
510 384 389 532 
511 645 765 766 
512 161 54 834 
513 620 619 621 
514 775 776 778 
515 766 767 768 
516 768 769 789 
517 748 669 883 
518 595 596 705 
519 396 425 791 
520 775 774 776 
521 670 999 1140 
522 275 273 841 
523 814 353 815 
524 778 779 781 
525 547 546 548 
526 766 765 767 
527 676 675 701 
528 733 669 734 
529 372 346 373 
530 669 529 883 
531 768 767 769 
532 416 373 661 
533 236 227 896 
534 348 395 396 
535 249 438 818 
536 400 375 401 
537 107 108 845 
538 549 548 655 
539 339 347 348 
540 345 321 346 
541 605 606 607 
542 645 643 765 
543 463 408 464 
544 402 417 965 
545 336 338 339 
546 742 743 744 
547 825 753 826 
548 594 538 718 
549 521 522 605 
550 547 549 595 
551 523 584 731 
552 668 529 669 
553 532 389 546 
554 407 396 408 
555 320 319 321 
556 334 335 336 
557 744 743 745 
558 332 333 334 
559 541 542 619 
560 427 488 490 
561 513 520 521 
562 778 776 779 
563 788 269 1045 
564 390 427 807 
565 313 296 838 
566 729 42 1065 
567 316 305 317 
568 528 466 529 
569 742 741 743 
570 243 253 920 
571 375 364 797 
572 330 331 332 
573 346 388 805 
574 292 291 293 
575 304 293 305 
576 499 675 676 
577 739 741 742 
578 317 318 319 
579 438 256 799 
580 539 540 541 
581 433 306 876 
582 605 522 606 
583 307 323 324 
584 871 475 873 
585 464 408 678 
586 168 45 798 
587 269 306 307 
588 328 329 330 
589 820 136 821 
590 272 290 291 
591 464 753 825 
592 324 439 801 
593 536 567 836 
594 553 818 878 
595 489 523 922 
596 256 271 272 
597 521 520 522 
598 401 375 797 
599 498 809 832 
600 437 536 538 
601 541 619 620 
602 809 810 811 
603 349 994 997 
604 394 436 437 
605 499 550 675 
606 553 824 898 
607 396 395 425 
608 306 267 876 
609 520 446 843 
610 265 544 876 
611 513 446 520 
612 348 347 395 
613 339 338 347 
614 490 488 585 
615 437 538 594 
616 819 236 896 
617 697 590 736 
618 249 255 256 
619 673 555 674 
620 731 584 747 
621 336 335 338 
622 707 551 762 
623 469 446 513 
624 334 333 335 
625 411 243 920 
626 332 331 333 
627 644 643 645 
628 134 823 895 
629 427 490 807 
630 327 326 328 
631 350 539 795 
632 624 841 981 
633 157 47 804 
634 444 443 446 
635 350 481 539 
636 345 346 372 
637 317 319 320 
638 307 306 323 
639 552 707 914 
640 328 326 329 
641 269 267 306 
642 372 373 416 
643 589 558 590 
644 324 323 439 
645 272 291 292 
646 325 324 326 
647 288 303 808 
648 787 786 788 
649 446 443 843 
650 319 350 795 
651 330 329 331 
652 268 267 269 
653 618 507 664 
654 765 643 965 
655 739 740 741 
656 320 321 345 
657 249 256 438 
658 44 45 168 
659 280 288 808 
660 233 241 818 
661 661 373 730 
662 158 79 848 
663 265 263 544 
664 680 505 681 
665 292 293 304 
666 760 207 1157 
667 831 725 843 
668 803 802 929 
669 528 529 657 
670 304 305 316 
671 266 265 267 
672 358 392 394 
673 803 462 995 
674 418 496 499 
675 846 611 917 
676 158 848 850 
677 686 166 687 
678 577 502 624 
679 790 177 933 
680 346 321 388 
681 834 127 835 
682 342 397 398 
683 241 249 818 
684 354 334 829 
685 809 808 810 
686 711 939 985 
687 89 90 165 
688 264 263 265 
689 464 752 753 
690 939 711 974 
691 482 507 618 
692 619 542 682 
693 317 320 916 
694 141 49 856 
695 856 50 857 
696 84 136 820 
697 278 280 498 
698 442 337 443 
699 413 380 929 
700 797 364 862 
701 46 47 157 
702 848 128 849 
703 614 615 758 
704 241 247 249 
705 320 405 916 
706 35 149 861 
707 493 419 558 
708 466 400 883 
709 311 358 985 
710 229 233 553 
711 337 328 800 
712 300 289 301 
713 53 161 823 
714 407 408 463 
715 288 302 303 
716 1016 801 1104 
717 348 396 407 
718 830 829 997 
719 463 464 825 
720 37 138 863 
721 432 611 612 
722 362 315 363 
723 317 305 318 
724 336 339 349 
725 541 540 542 
726 587 513 837 
727 763 676 764 
728 735 711 985 
729 319 318 350 
730 87 88 144 
731 48 49 141 
732 773 775 780 
733 482 483 507 
734 739 738 740 
735 418 499 763 
736 718 538 719 
737 128 81 828 
738 246 240 353 
739 50 51 857 
740 502 359 841 
741 332 334 354 
742 614 612 615 
743 539 481 540 
744 55 127 834 
745 850 849 851 
746 84 85 136 
747 272 271 290 
748 51 52 134 
749 291 290 311 
750 613 612 614 
751 256 255 271 
752 262 251 263 
753 437 436 536 
754 681 802 803 
755 531 505 680 
756 476 475 871 
757 356 355 432 
758 86 87 854 
759 432 355 611 
760 521 605 679 
761 589 590 697 
762 649 500 947 
763 681 803 852 
764 659 871 872 
765 394 392 436 
766 505 459 802 
767 642 534 643 
768 340 447 625 
769 365 367 865 
770 82 83 159 
771 870 869 954 
772 508 510 623 
773 278 498 833 
774 452 454 630 
775 53 54 161 
776 328 330 800 
777 802 413 929 
778 1115 700 1165 
779 152 836 1202 
780 493 558 589 
781 349 339 924 
782 725 520 843 
783 307 324 325 
784 793 618 794 
785 249 247 255 
786 469 513 587 
787 444 446 469 
788 352 313 355 
789 80 128 848 
790 512 476 871 
791 327 328 337 
792 80 81 128 
793 325 326 327 
794 507 508 817 
795 675 550 683 
796 784 783 785 
797 624 502 841 
798 766 768 770 
799 45 46 798 
800 384 385 389 
801 493 589 869 
802 495 459 505 
803 55 56 127 
804 499 496 550 
805 263 251 813 
806 456 482 793 
807 348 407 924 
808 551 316 916 
809 442 443 444 
810 659 512 871 
811 646 491 1111 
812 266 267 268 
813 456 473 482 
814 655 749 750 
815 353 240 819 
816 555 463 825 
817 424 557 865 
818 354 829 830 
819 47 48 804 
820 424 487 557 
821 367 424 865 
822 264 265 266 
823 628 512 659 
824 799 292 961 
825 344 316 551 
826 644 645 726 
827 563 715 1043 
828 300 301 860 
829 160 58 879 
830 777 784 931 
831 848 849 850 
832 530 502 577 
833 291 311 939 
834 698 577 699 
835 33 34 129 
836 262 263 264 
837 35 36 149 
838 101 102 131 
839 625 447 717 
840 52 53 823 
841 37 38 138 
842 664 507 817 
843 99 100 150 
844 432 612 613 
845 552 551 707 
846 994 709 997 
847 365 865 944 
848 97 98 139 
849 83 84 820 
850 769 767 771 
851 407 554 924 
852 730 525 1112 
853 797 862 1097 
854 427 428 488 
855 81 82 828 
856 470 359 502 
857 615 846 847 
858 461 416 491 
859 560 552 914 
860 267 265 876 
861 54 55 834 
862 872 871 873 
863 49 50 856 
864 907 908 910 
865 613 614 650 
866 253 340 920 
867 374 364 375 
868 915 220 962 
869 507 483 508 
870 352 355 356 
871 776 774 777 
872 40 41 146 
873 681 505 802 
874 133 77 877 
875 792 791 899 
876 94 95 148 
877 564 491 646 
878 183 383 384 
879 759 704 760 
880 376 375 400 
881 806 585 922 
882 355 313 838 
883 857 134 1043 
884 315 300 860 
885 557 487 671 
886 438 799 1013 
887 642 643 644 
888 78 79 158 
889 523 524 584 
890 612 611 846 
891 623 510 866 
892 57 58 160 
893 529 466 883 
894 390 406 427 
895 499 676 763 
896 222 220 915 
897 822 136 1173 
898 440 222 915 
899 592 500 649 
900 482 473 483 
901 703 560 704 
902 78 158 877 
903 654 940 1019 
904 465 400 466 
905 902 901 904 
906 98 99 864 
907 815 353 819 
908 139 98 864 
909 99 150 864 
910 998 638 1003 
911 79 80 848 
912 762 405 1026 
913 172 137 173 
914 92 93 170 
915 231 918 960 
916 628 659 660 
917 482 618 793 
918 484 485 720 
919 262 264 887 
920 527 466 528 
921 30 31 151 
922 495 505 531 
923 104 105 152 
924 661 754 1110 
925 432 613 925 
926 544 263 813 
927 163 901 902 
928 143 907 910 
929 124 107 845 
930 522 520 725 
931 907 164 908 
932 1057 671 1071 
933 59 135 879 
934 200 199 937 
935 30 151 885 
936 323 306 433 
937 854 822 1173 
938 163 902 903 
939 865 557 897 
940 218 229 898 
941 908 164 909 
942 187 185 364 
943 58 59 879 
944 824 410 898 
945 723 724 1165 
946 448 452 881 
947 901 140 904 
948 489 515 523 
949 439 323 859 
950 468 257 948 
951 121 122 167 
952 776 777 931 
953 66 169 911 
954 350 480 481 
955 704 560 914 
956 69 70 905 
957 93 94 867 
958 554 463 555 
959 333 331 361 
960 562 431 934 
961 316 317 916 
962 103 104 875 
963 510 574 866 
964 237 411 918 
965 201 409 484 
966 15 16 145 
967 27 28 844 
968 737 426 1180 
969 311 357 358 
970 333 361 913 
971 77 78 877 
972 779 776 931 
973 14 15 840 
974 65 66 911 
975 615 612 846 
976 538 536 836 
977 338 335 415 
978 76 77 133 
979 119 120 142 
980 498 832 833 
981 536 537 567 
982 74 162 900 
983 323 433 859 
984 611 355 838 
985 28 29 123 
986 534 434 965 
987 59 60 135 
988 106 107 124 
989 229 230 233 
990 233 234 241 
991 74 75 162 
992 613 684 925 
993 395 347 426 
994 241 242 247 
995 556 555 673 
996 358 382 392 
997 140 73 900 
998 94 148 867 
999 73 74 900 
1000 708 673 812 
1001 478 431 562 
1002 905 903 906 
1003 72 140 901 
1004 259 257 468 
1005 64 164 907 
1006 72 73 140 
1007 62 63 143 
1008 143 63 907 
1009 420 419 493 
1010 567 631 713 
1011 163 71 901 
1012 71 72 901 
1013 70 71 163 
1014 64 65 164 
1015 734 669 748 
1016 63 64 907 
1017 66 67 169 
1018 70 163 905 
1019 17 18 853 
1020 351 313 352 
1021 269 788 1197 
1022 105 106 886 
1023 424 486 487 
1024 470 502 530 
1025 25 26 153 
1026 304 316 344 
1027 340 341 447 
1028 109 110 154 
1029 867 148 868 
1030 163 903 905 
1031 530 577 698 
1032 340 625 920 
1033 278 279 280 
1034 231 237 918 
1035 546 807 923 
1036 239 236 240 
1037 164 65 911 
1038 656 805 1088 
1039 280 284 288 
1040 205 203 460 
1041 213 216 410 
1042 23 24 125 
1043 111 112 126 
1044 441 337 442 
1045 667 869 870 
1046 312 296 313 
1047 20 21 155 
1048 114 115 156 
1049 245 240 246 
1050 250 246 251 
1051 18 19 132 
1052 116 117 130 
1053 452 453 454 
1054 909 164 911 
1055 225 222 440 
1056 588 587 651 
1057 404 356 475 
1058 120 121 882 
1059 235 227 236 
1060 454 455 456 
1061 367 423 424 
1062 600 518 667 
1063 518 493 869 
1064 170 93 867 
1065 577 624 1000 
1066 393 998 1003 
1067 320 345 405 
1068 588 651 1109 
1069 752 658 1131 
1070 237 243 411 
1071 261 251 262 
1072 667 518 869 
1073 344 551 552 
1074 218 224 229 
1075 215 209 419 
1076 633 635 722 
1077 1091 979 1098 
1078 448 450 452 
1079 372 416 461 
1080 253 285 340 
1081 104 152 875 
1082 384 383 385 
1083 342 343 397 
1084 17 853 884 
1085 141 971 1181 
1086 274 276 278 
1087 270 268 281 
1088 302 308 342 
1089 288 294 302 
1090 611 838 917 
1091 339 348 924 
1092 655 548 749 
1093 581 582 652 
1094 627 512 628 
1095 397 399 418 
1096 624 981 992 
1097 203 200 937 
1098 703 704 759 
1099 511 476 512 
1100 475 356 925 
1101 892 460 984 
1102 896 440 1047 
1103 389 385 390 
1104 570 616 617 
1105 286 281 289 
1106 410 216 898 
1107 456 472 473 
1108 110 111 889 
1109 305 293 974 
1110 298 289 300 
1111 309 300 315 
1112 322 315 362 
1113 34 35 861 
1114 378 287 462 
1115 36 37 863 
1116 418 421 496 
1117 508 509 510 
1118 478 562 583 
1119 658 657 990 
1120 115 116 894 
1121 565 566 581 
1122 152 105 886 
1123 503 706 842 
1124 564 646 936 
1125 419 209 943 
1126 356 432 925 
1127 458 413 459 
1128 412 380 413 
1129 790 696 1097 
1130 201 484 946 
1131 870 1016 1104 
1132 732 1141 1188 
1133 427 406 428 
1134 461 491 564 
1135 25 153 888 
1136 510 573 574 
1137 755 571 756 
1138 487 486 586 
1139 402 362 417 
1140 424 423 486 
1141 477 516 565 
1142 840 687 1164 
1143 403 435 610 
1144 727 726 729 
1145 595 705 728 
1146 31 32 874 
1147 430 368 431 
1148 494 459 495 
1149 717 447 881 
1150 352 356 404 
1151 187 364 374 
1152 312 313 351 
1153 528 657 658 
1154 563 531 714 
1155 542 540 543 
1156 663 721 751 
1157 374 375 376 
1158 484 409 485 
1159 474 431 478 
1160 652 582 653 
1161 271 255 572 
1162 350 318 480 
1163 462 287 887 
1164 29 30 885 
1165 379 381 471 
1166 216 218 898 
1167 329 801 1016 
1168 15 145 840 
1169 20 155 893 
1170 287 262 887 
1171 506 422 647 
1172 377 379 927 
1173 407 463 554 
1174 501 500 592 
1175 693 696 790 
1176 121 167 882 
1177 613 650 684 
1178 617 851 1201 
1179 488 428 489 
1180 297 314 365 
1181 430 474 561 
1182 376 400 465 
1183 28 123 844 
1184 379 471 927 
1185 719 538 836 
1186 492 662 663 
1187 474 478 479 
1188 311 290 357 
1189 581 566 582 
1190 653 582 654 
1191 106 124 886 
1192 536 436 537 
1193 90 91 982 
1194 451 449 500 
1195 340 285 341 
1196 423 368 430 
1197 360 359 470 
1198 649 947 951 
1199 447 341 448 
1200 991 157 1090 
1201 142 120 882 
1202 404 475 476 
1203 293 291 939 
1204 367 368 423 
1205 127 56 999 
1206 205 460 892 
1207 366 314 369 
1208 21 22 891 
1209 523 515 524 
1210 235 236 239 
1211 465 466 527 
1212 511 512 627 
1213 430 431 474 
1214 454 453 455 
1215 452 450 453 
1216 584 524 952 
1217 456 455 472 
1218 869 589 954 
1219 16 17 884 
1220 277 275 359 
1221 367 366 368 
1222 447 448 881 
1223 420 493 518 
1224 365 366 367 
1225 586 486 593 
1226 229 224 230 
1227 233 230 234 
1228 755 756 757 
1229 627 628 670 
1230 327 337 441 
1231 469 587 588 
1232 481 480 710 
1233 215 419 420 
1234 124 845 858 
1235 239 240 245 
1236 250 251 261 
1237 241 234 242 
1238 245 246 250 
1239 586 593 912 
1240 247 242 248 
1241 533 434 534 
1242 24 25 888 
1243 565 516 566 
1244 442 444 445 
1245 460 203 937 
1246 503 842 945 
1247 19 20 893 
1248 508 483 509 
1249 358 357 382 
1250 254 244 257 
1251 280 279 284 
1252 641 534 642 
1253 365 314 366 
1254 581 652 1001 
1255 266 268 270 
1256 297 312 314 
1257 278 276 279 
1258 260 283 299 
1259 567 537 631 
1260 554 555 556 
1261 392 382 393 
1262 602 603 604 
1263 335 333 913 
1264 839 179 1002 
1265 18 132 853 
1266 297 296 312 
1267 740 738 746 
1268 261 262 287 
1269 412 413 458 
1270 352 404 938 
1271 183 384 1002 
1272 519 601 602 
1273 495 531 563 
1274 260 259 282 
1275 488 489 922 
1276 11 12 166 
1277 566 516 712 
1278 238 232 576 
1279 550 496 597 
1280 639 638 640 
1281 683 550 926 
1282 585 488 922 
1283 140 900 989 
1284 556 673 708 
1285 283 282 296 
1286 403 610 975 
1287 283 296 297 
1288 473 472 545 
1289 451 500 501 
1290 226 228 231 
1291 351 352 938 
1292 219 217 220 
1293 154 110 889 
1294 430 561 930 
1295 559 552 560 
1296 451 501 568 
1297 404 476 477 
1298 247 248 928 
1299 599 560 703 
1300 636 634 638 
1301 258 257 259 
1302 288 284 294 
1303 349 924 994 
1304 477 476 511 
1305 304 344 961 
1306 458 459 494 
1307 724 732 1188 
1308 129 861 1108 
1309 423 430 930 
1310 889 126 890 
1311 441 442 919 
1312 111 126 889 
1313 477 511 516 
1314 510 509 573 
1315 57 160 999 
1316 231 232 237 
1317 486 423 930 
1318 237 238 243 
1319 260 282 283 
1320 243 244 253 
1321 377 927 958 
1322 156 115 894 
1323 431 368 934 
1324 253 254 285 
1325 302 294 308 
1326 253 244 254 
1327 270 281 286 
1328 116 130 894 
1329 342 308 343 
1330 397 343 399 
1331 258 259 260 
1332 448 449 450 
1333 243 238 244 
1334 574 573 672 
1335 568 569 570 
1336 570 571 616 
1337 286 289 298 
1338 309 315 322 
1339 647 422 978 
1340 298 300 309 
1341 448 341 449 
1342 228 227 235 
1343 545 472 608 
1344 643 534 965 
1345 204 206 207 
1346 887 264 968 
1347 208 210 211 
1348 568 501 569 
1349 214 212 370 
1350 455 453 457 
1351 221 223 580 
1352 129 34 861 
1353 237 232 238 
1354 616 571 755 
1355 149 36 863 
1356 360 470 504 
1357 570 569 571 
1358 255 247 928 
1359 492 663 949 
1360 245 250 252 
1361 369 314 932 
1362 575 564 716 
1363 450 449 451 
1364 458 494 503 
1365 405 345 970 
1366 477 565 938 
1367 442 445 919 
1368 654 582 940 
1369 593 486 930 
1370 211 212 213 
1371 277 359 360 
1372 381 412 414 
1373 226 225 227 
1374 565 581 983 
1375 506 647 648 
1376 404 477 938 
1377 503 626 706 
1378 231 228 232 
1379 368 366 934 
1380 563 714 715 
1381 429 811 1033 
1382 254 257 258 
1383 692 691 694 
1384 277 360 467 
1385 322 362 402 
1386 223 222 225 
1387 418 399 421 
1388 208 206 209 
1389 381 380 412 
1390 545 608 677 
1391 379 378 380 
1392 221 220 222 
1393 186 188 189 
1394 235 239 386 
1395 201 202 409 
1396 213 214 216 
1397 366 369 934 
1398 390 391 406 
1399 377 287 378 
1400 312 351 932 
1401 314 312 932 
1402 226 227 228 
1403 690 688 691 
1404 261 287 377 
1405 379 380 381 
1406 210 209 215 
1407 503 494 626 
1408 7 8 147 
1409 218 219 224 
1410 415 335 913 
1411 377 378 379 
1412 216 217 218 
1413 603 601 622 
1414 573 509 598 
1415 218 217 219 
1416 644 726 727 
1417 873 684 1087 
1418 716 564 936 
1419 213 212 214 
1420 190 192 193 
1421 202 200 203 
1422 582 566 940 
1423 297 365 944 
1424 372 461 970 
1425 190 188 191 
1426 198 196 199 
1427 292 304 961 
1428 248 273 274 
1429 216 214 217 
1430 519 518 600 
1431 194 192 195 
1432 344 552 559 
1433 602 601 603 
1434 194 196 197 
1435 197 198 946 
1436 604 603 629 
1437 589 697 954 
1438 496 421 949 
1439 500 449 947 
1440 602 604 1007 
1441 483 473 959 
1442 183 184 383 
1443 517 665 754 
1444 198 200 201 
1445 570 617 987 
1446 248 242 273 
1447 645 766 996 
1448 745 743 980 
1449 548 546 923 
1450 223 225 226 
1451 663 662 721 
1452 274 275 276 
1453 207 760 1162 
1454 221 222 223 
1455 230 224 371 
1456 294 284 295 
1457 211 210 212 
1458 186 185 187 
1459 420 518 519 
1460 207 206 208 
1461 392 393 976 
1462 533 534 641 
1463 9 10 137 
1464 959 545 986 
1465 710 711 735 
1466 665 591 666 
1467 204 203 205 
1468 7 147 700 
1469 572 255 928 
1470 609 585 1012 
1471 219 220 221 
1472 298 309 310 
1473 341 285 947 
1474 444 469 935 
1475 184 182 185 
1476 208 209 210 
1477 151 31 874 
1478 517 391 591 
1479 559 560 599 
1480 566 712 940 
1481 204 205 206 
1482 196 195 955 
1483 485 409 578 
1484 489 514 515 
1485 344 559 961 
1486 10 11 685 
1487 270 286 579 
1488 274 273 275 
1489 276 275 277 
1490 343 308 387 
1491 473 545 959 
1492 939 311 985 
1493 639 640 702 
1494 461 564 575 
1495 8 9 171 
1496 524 525 526 
1497 519 600 601 
1498 264 266 968 
1499 382 357 429 
1500 1001 652 1005 
1501 636 638 639 
1502 390 385 391 
1503 299 283 944 
1504 710 480 711 
1505 345 372 970 
1506 283 297 944 
1507 271 572 972 
1508 550 597 926 
1509 403 434 435 
1510 631 632 633 
1511 435 533 535 
1512 189 188 190 
1513 509 483 959 
1514 318 305 974 
1515 633 634 635 
1516 193 192 194 
1517 435 434 533 
1518 453 450 942 
1519 322 402 403 
1520 201 200 202 
1521 197 196 198 
1522 202 203 204 
1523 480 318 974 
1524 631 537 632 
1525 290 271 972 
1526 525 730 1185 
1527 635 636 637 
1528 887 968 995 
1529 123 29 885 
1530 942 568 987 
1531 257 244 948 
1532 403 402 434 
1533 357 290 972 
1534 451 568 942 
1535 436 392 976 
1536 186 187 188 
1537 822 672 1191 
1538 190 191 192 
1539 492 422 506 
1540 421 399 422 
1541 686 687 688 
1542 758 386 1044 
1543 445 444 935 
1544 537 436 976 
1545 597 496 949 
1546 194 195 196 
1547 198 199 200 
1548 489 428 514 
1549 822 854 1079 
1550 165 90 982 
1551 556 708 709 
1552 469 588 935 
1553 376 465 497 
1554 492 506 662 
1555 841 273 981 
1556 421 422 492 
1557 184 185 186 
1558 187 374 941 
1559 198 201 946 
1560 450 451 942 
1561 238 576 948 
1562 457 942 987 
1563 524 515 525 
1564 663 751 1030 
1565 180 182 183 
1566 449 341 947 
1567 244 238 948 
1568 519 602 957 
1569 205 892 943 
1570 266 270 968 
1571 145 16 884 
1572 635 634 636 
1573 406 391 517 
1574 412 458 945 
1575 285 254 951 
1576 576 232 953 
1577 633 632 634 
1578 414 412 945 
1579 461 575 970 
1580 457 453 942 
1581 155 21 891 
1582 517 591 665 
1583 749 548 923 
1584 176 178 179 
1585 524 526 952 
1586 228 235 953 
1587 526 525 656 
1588 517 754 973 
1589 622 1123 1171 
1590 199 196 955 
1591 215 420 957 
1592 279 276 950 
1593 172 174 175 
1594 180 178 181 
1595 458 503 945 
1596 254 258 951 
1597 125 24 888 
1598 864 150 988 
1599 232 228 953 
1600 598 959 986 
1601 235 386 953 
1602 68 69 1008 
1603 226 231 960 
1604 277 467 950 
1605 598 509 959 
1606 132 19 893 
1607 176 174 177 
1608 220 217 962 
1609 905 906 1008 
1610 183 182 184 
1611 690 691 692 
1612 785 787 1125 
1613 829 349 997 
1614 209 206 943 
1615 206 205 943 
1616 250 261 958 
1617 806 894 1012 
1618 421 492 949 
1619 947 285 951 
1620 686 688 689 
1621 351 938 983 
1622 276 277 950 
1623 210 215 956 
1624 580 223 960 
1625 370 212 956 
1626 252 250 958 
1627 700 723 1165 
1628 242 234 981 
1629 409 202 964 
1630 191 188 941 
1631 828 677 1113 
1632 159 820 1040 
1633 968 579 995 
1634 711 480 974 
1635 690 692 693 
1636 261 377 958 
1637 845 108 1028 
1638 188 187 941 
1639 224 219 963 
1640 429 357 972 
1641 214 370 962 
1642 212 210 956 
1643 342 398 1046 
1644 749 609 1039 
1645 217 214 962 
1646 204 207 964 
1647 411 920 1051 
1648 221 580 963 
1649 693 695 696 
1650 904 140 989 
1651 270 579 968 
1652 223 226 960 
1653 284 279 966 
1654 897 557 1023 
1655 385 383 969 
1656 383 184 967 
1657 924 554 994 
1658 632 537 976 
1659 186 189 967 
1660 61 62 1017 
1661 172 173 174 
1662 584 952 1011 
1663 219 221 963 
1664 578 409 964 
1665 371 224 963 
1666 170 867 993 
1667 428 406 973 
1668 273 242 981 
1669 713 875 1202 
1670 420 519 957 
1671 693 692 695 
1672 374 376 977 
1673 295 284 966 
1674 780 775 1029 
1675 700 147 723 
1676 676 701 1064 
1677 130 117 1004 
1678 689 688 690 
1679 202 204 964 
1680 938 565 983 
1681 180 181 182 
1682 361 331 1016 
1683 179 178 180 
1684 977 745 1200 
1685 932 351 983 
1686 60 61 1019 
1687 303 302 1046 
1688 642 644 991 
1689 956 215 957 
1690 195 192 980 
1691 157 804 1090 
1692 176 177 178 
1693 814 815 1171 
1694 175 174 176 
1695 591 391 969 
1696 926 148 1070 
1697 638 634 1003 
1698 535 533 971 
1699 821 598 1040 
1700 1007 604 1022 
1701 658 752 1147 
1702 815 819 1047 
1703 406 517 973 
1704 184 186 967 
1705 179 180 1002 
1706 89 165 1061 
1707 562 1005 1021 
1708 387 308 979 
1709 666 1015 1024 
1710 877 158 1063 
1711 294 295 979 
1712 310 309 975 
1713 279 950 966 
1714 309 322 975 
1715 568 570 987 
1716 414 872 1169 
1717 308 294 979 
1718 554 556 994 
1719 533 641 971 
1720 545 677 986 
1721 391 385 969 
1722 644 727 991 
1723 399 343 978 
1724 562 934 1005 
1725 614 758 1052 
1726 295 1096 1098 
1727 322 403 975 
1728 383 967 969 
1729 679 605 1050 
1730 343 387 978 
1731 136 822 1191 
1732 585 806 1012 
1733 155 891 990 
1734 144 88 1061 
1735 941 374 977 
1736 230 371 992 
1737 627 880 1163 
1738 422 399 978 
1739 651 874 1054 
1740 514 428 973 
1741 192 191 980 
1742 260 299 1009 
1743 376 497 977 
1744 234 230 992 
1745 567 713 1202 
1746 666 591 1015 
1747 880 712 1163 
1748 38 39 1034 
1749 681 852 1055 
1750 145 884 1154 
1751 39 40 1073 
1752 608 472 1006 
1753 983 581 1001 
1754 976 393 1003 
1755 699 577 1000 
1756 981 234 992 
1757 619 682 1083 
1758 455 457 1006 
1759 812 153 1049 
1760 426 739 1062 
1761 867 868 993 
1762 1009 299 1018 
1763 766 770 996 
1764 269 307 1045 
1765 153 812 1128 
1766 891 22 1032 
1767 56 57 999 
1768 23 125 1032 
1769 33 129 1054 
1770 640 638 998 
1771 626 895 1122 
1772 462 887 995 
1773 117 118 1004 
1774 990 657 1068 
1775 327 441 1020 
1776 790 1097 1195 
1777 161 834 1161 
1778 662 855 1152 
1779 556 709 994 
1780 951 258 1009 
1781 160 880 1140 
1782 76 133 1048 
1783 128 828 1113 
1784 150 100 1066 
1785 527 792 1178 
1786 162 75 1048 
1787 109 154 1028 
1788 416 661 1110 
1789 1005 652 1021 
1790 632 976 1003 
1791 874 32 1054 
1792 395 426 1062 
1793 369 932 1001 
1794 932 983 1001 
1795 736 984 1082 
1796 410 759 1179 
1797 1123 816 1171 
1798 27 844 1049 
1799 561 474 1031 
1800 148 95 1070 
1801 113 747 1186 
1802 770 768 1139 
1803 891 1032 1176 
1804 369 1001 1005 
1805 401 797 1053 
1806 478 583 1037 
1807 717 881 1069 
1808 180 183 1002 
1809 649 951 1009 
1810 69 905 1008 
1811 805 388 1088 
1812 747 584 1011 
1813 701 675 1160 
1814 745 977 1130 
1815 634 632 1003 
1816 572 832 1014 
1817 190 193 1024 
1818 704 914 1093 
1819 659 872 1101 
1820 799 961 1013 
1821 623 1091 1098 
1822 852 579 1041 
1823 754 661 1119 
1824 895 626 1035 
1825 753 752 1131 
1826 1076 387 1091 
1827 472 455 1006 
1828 101 131 1066 
1829 961 559 1013 
1830 495 563 1035 
1831 531 680 1085 
1832 874 651 1136 
1833 895 823 1122 
1834 415 737 1180 
1835 915 962 1022 
1836 153 26 1049 
1837 812 673 1128 
1838 894 130 1012 
1839 699 1060 1078 
1840 1015 189 1024 
1841 934 369 1005 
1842 295 966 1096 
1843 331 329 1016 
1844 258 260 1009 
1845 847 576 1027 
1846 858 845 1146 
1847 626 494 1035 
1848 583 562 1021 
1849 649 1009 1018 
1850 136 85 1173 
1851 86 854 1173 
1852 177 790 1195 
1853 571 569 1071 
1854 13 14 1164 
1855 855 648 1079 
1856 628 660 1077 
1857 122 1 1115 
1858 1 6 1115 
1859 699 1000 1060 
1860 501 592 1057 
1861 268 269 1197 
1862 245 252 1044 
1863 888 1128 1175 
1864 683 926 1070 
1865 62 143 1017 
1866 859 433 1123 
1867 382 429 1033 
1868 298 310 1041 
1869 1054 129 1109 
1870 433 816 1123 
1871 299 897 1018 
1872 131 102 1155 
1873 535 971 1010 
1874 559 599 1013 
1875 386 239 1044 
1876 957 602 1007 
1877 750 749 1039 
1878 972 572 1014 
1879 633 722 1121 
1880 651 587 1136 
1881 325 327 1020 
1882 579 286 1041 
1883 597 949 1030 
1884 956 957 1007 
1885 592 649 1018 
1886 815 1058 1171 
1887 135 60 1019 
1888 370 956 1007 
1889 155 990 1068 
1890 718 719 1072 
1891 370 1007 1022 
1892 1020 441 1125 
1893 755 133 1159 
1894 41 42 1194 
1895 804 141 1181 
1896 338 415 1180 
1897 733 132 1151 
1898 213 410 1179 
1899 429 972 1014 
1900 119 142 1094 
1901 97 139 1129 
1902 543 858 1146 
1903 652 653 1021 
1904 835 127 1192 
1905 1099 646 1111 
1906 967 189 1015 
1907 601 600 1081 
1908 629 603 1058 
1909 526 656 1074 
1910 398 764 1086 
1911 960 918 1078 
1912 911 169 1187 
1913 126 112 1186 
1914 875 152 1202 
1915 970 575 1026 
1916 557 671 1023 
1917 980 743 1127 
1918 969 967 1015 
1919 683 1070 1129 
1920 875 713 1155 
1921 67 4 1144 
1922 4 68 1144 
1923 5 92 1142 
1924 713 631 1121 
1925 108 109 1028 
1926 576 953 1027 
1927 886 124 1072 
1928 542 543 1146 
1929 22 23 1032 
1930 635 637 1100 
1931 775 778 1029 
1932 915 1022 1056 
1933 850 617 1063 
1934 195 980 1127 
1935 906 903 1025 
1936 794 618 1106 
1937 43 3 1143 
1938 637 636 1075 
1939 591 969 1015 
1940 103 875 1155 
1941 360 504 1089 
1942 91 5 1142 
1943 733 734 1036 
1944 880 627 1140 
1945 610 435 1133 
1946 903 902 1170 
1947 177 174 1080 
1948 688 687 1114 
1949 657 668 1068 
1950 738 737 1082 
1951 426 347 1180 
1952 689 933 1080 
1953 1090 804 1181 
1954 979 295 1098 
1955 470 530 1150 
1956 888 153 1128 
1957 405 970 1026 
1958 528 658 1147 
1959 737 736 1082 
1960 962 370 1022 
1961 3 44 1143 
1962 189 190 1024 
1963 712 516 1163 
1964 440 915 1056 
1965 471 381 1169 
1966 854 855 1079 
1967 1078 918 1117 
1968 1004 750 1039 
1969 820 821 1040 
1970 933 177 1080 
1971 144 1061 1152 
1972 474 479 1031 
1973 207 208 1157 
1974 789 780 1196 
1975 525 515 1112 
1976 642 991 1090 
1977 138 38 1034 
1978 151 1136 1193 
1979 138 789 1196 
1980 1022 604 1056 
1981 199 955 1105 
1982 1004 118 1094 
1983 325 1020 1045 
1984 511 627 1163 
1985 719 886 1072 
1986 687 166 1038 
1987 949 663 1030 
1988 953 386 1027 
1989 393 382 1033 
1990 1042 646 1099 
1991 1067 844 1168 
1992 592 1023 1057 
1993 593 930 1126 
1994 866 1076 1091 
1995 494 495 1035 
1996 980 191 1200 
1997 877 1063 1159 
1998 1062 742 1153 
1999 692 694 1134 
2000 637 988 1100 
2001 479 478 1037 
2002 1032 827 1176 
2003 1038 13 1164 
2004 1006 457 1201 
2005 1034 770 1139 
2006 487 586 1084 
2007 154 889 1174 
2008 178 177 1195 
2009 1017 143 1095 
2010 26 27 1049 
2011 371 963 1060 
2012 745 980 1200 
2013 465 527 1178 
2014 134 895 1043 
2015 789 138 1139 
2016 605 607 1050 
2017 302 342 1046 
2018 936 646 1042 
2019 750 1004 1094 
2020 1084 586 1092 
2021 307 325 1045 
2022 1051 625 1059 
2023 989 593 1126 
2024 987 617 1201 
2025 844 123 1168 
2026 617 616 1063 
2027 1011 126 1186 
2028 805 656 1185 
2029 792 527 1189 
2030 988 150 1100 
2031 881 630 1069 
2032 998 393 1033 
2033 752 678 1189 
2034 819 896 1047 
2035 787 1020 1125 
2036 286 298 1041 
2037 677 828 1167 
2038 75 76 1048 
2039 1000 371 1060 
2040 680 681 1055 
2041 966 950 1107 
2042 650 614 1052 
2043 607 606 1158 
2044 32 33 1054 
2045 239 245 1044 
2046 425 1062 1153 
2047 918 411 1117 
2048 978 387 1076 
2049 151 874 1136 
2050 159 1040 1167 
2051 1029 778 1108 
2052 810 303 1148 
2053 667 1104 1118 
2054 855 144 1152 
2055 252 958 1120 
2056 586 912 1092 
2057 598 986 1040 
2058 920 625 1051 
2059 996 770 1073 
2060 764 676 1064 
2061 133 877 1159 
2062 158 850 1063 
2063 625 717 1059 
2064 671 487 1084 
2065 425 395 1062 
2066 310 975 1103 
2067 1129 139 1160 
2068 739 742 1062 
2069 828 159 1167 
2070 100 101 1066 
2071 973 754 1119 
2072 667 870 1104 
2073 706 626 1122 
2074 1077 835 1192 
2075 88 89 1061 
2076 95 96 1070 
2077 851 1006 1201 
2078 42 43 1065 
2079 811 810 1132 
2080 623 866 1091 
2081 1081 859 1123 
2082 1094 142 1141 
2083 741 955 1127 
2084 569 501 1057 
2085 696 695 1053 
2086 902 1031 1170 
2087 893 155 1068 
2088 604 629 1056 
2089 672 821 1191 
2090 168 1065 1143 
2091 603 622 1058 
2092 620 621 1074 
2093 146 996 1073 
2094 677 608 1113 
2095 941 977 1200 
2096 708 812 1067 
2097 1064 637 1075 
2098 651 1054 1109 
2099 578 964 1162 
2100 40 146 1073 
2101 647 1076 1116 
2102 756 571 1071 
2103 1128 674 1175 
2104 904 1126 1199 
2105 162 1048 1166 
2106 817 623 1098 
2107 686 689 1137 
2108 963 580 1060 
2109 1060 580 1078 
2110 1113 608 1198 
2111 998 1033 1132 
2112 530 1059 1150 
2113 621 619 1083 
2114 1023 671 1057 
2115 388 796 1088 
2116 647 978 1076 
2117 618 664 1106 
2118 650 1120 1138 
2119 1065 168 1184 
2120 746 738 1082 
2121 600 667 1118 
2122 124 858 1072 
2123 167 1115 1165 
2124 1033 811 1132 
2125 699 1078 1117 
2126 1126 561 1199 
2127 862 181 1097 
2128 1096 817 1098 
2129 984 746 1082 
2130 118 119 1094 
2131 670 628 1077 
2132 636 639 1075 
2133 1070 96 1129 
2134 826 125 1175 
2135 668 733 1151 
2136 982 91 1142 
2137 714 531 1085 
2138 1096 966 1107 
2139 1068 668 1151 
2140 760 704 1093 
2141 1085 610 1133 
2142 622 601 1081 
2143 1087 471 1169 
2144 872 873 1087 
2145 751 165 1183 
2146 1132 810 1148 
2147 756 1084 1092 
2148 664 817 1096 
2149 707 762 1102 
2150 890 952 1182 
2151 574 672 1135 
2152 143 910 1095 
2153 801 439 1104 
2154 1136 837 1193 
2155 684 650 1138 
2156 174 173 1080 
2157 580 960 1078 
2158 899 425 1153 
2159 660 659 1101 
2160 757 756 1092 
2161 914 707 1124 
2162 937 199 1105 
2163 1106 664 1107 
2164 778 781 1108 
2165 1075 639 1086 
2166 1104 439 1118 
2167 1052 252 1120 
2168 491 416 1110 
2169 170 982 1142 
2170 641 642 1090 
2171 467 360 1089 
2172 621 890 1182 
2173 720 485 1102 
2174 975 610 1103 
2175 856 857 1172 
2176 1024 193 1099 
2177 639 702 1086 
2178 1055 310 1103 
2179 730 805 1185 
2180 849 128 1113 
2181 722 635 1100 
2182 44 168 1143 
2183 821 136 1191 
2184 823 161 1122 
2185 627 670 1140 
2186 123 1050 1168 
2187 1089 794 1106 
2188 747 1011 1186 
2189 743 741 1127 
2190 1061 721 1152 
2191 479 1025 1170 
2192 827 753 1131 
2193 863 138 1196 
2194 744 745 1130 
2195 904 989 1126 
2196 439 859 1118 
2197 910 583 1156 
2198 764 1075 1086 
2199 691 688 1114 
2200 1040 986 1167 
2201 885 151 1193 
2202 1083 154 1174 
2203 387 979 1091 
2204 167 122 1115 
2205 673 674 1128 
2206 467 1106 1107 
2207 698 699 1117 
2208 674 826 1175 
2209 96 97 1129 
2210 648 647 1116 
2211 958 927 1120 
2212 685 686 1137 
2213 977 497 1130 
2214 849 1113 1198 
2215 1120 927 1138 
2216 655 750 1141 
2217 679 885 1193 
2218 836 567 1202 
2219 631 633 1121 
2220 893 1068 1151 
2221 68 1008 1144 
2222 950 467 1107 
2223 1102 485 1124 
2224 837 679 1193 
2225 678 792 1189 
2226 665 666 1111 
2227 515 514 1112 
2228 691 1114 1154 
2229 708 1067 1158 
2230 816 814 1171 
2231 952 526 1182 
2232 784 919 1190 
2233 587 837 1136 
2234 768 789 1139 
2235 780 863 1196 
2236 781 779 1149 
2237 1025 909 1187 
2238 906 1025 1187 
2239 955 195 1127 
2240 742 744 1153 
2241 707 1102 1124 
2242 930 561 1126 
2243 441 919 1125 
2244 485 578 1124 
2245 666 1099 1111 
2246 1063 616 1159 
2247 1071 671 1084 
2248 1112 514 1119 
2249 1067 607 1158 
2250 127 999 1192 
2251 435 535 1133 
2252 714 1133 1145 
2253 890 621 1174 
2254 779 931 1177 
2255 1147 752 1189 
2256 715 714 1145 
2257 1093 578 1162 
2258 675 683 1160 
2259 169 67 1144 
2260 514 973 1119 
2261 102 103 1155 
2262 695 692 1134 
2263 682 542 1146 
2264 927 471 1138 
2265 834 835 1161 
2266 125 888 1175 
2267 640 1132 1148 
2268 641 1090 1181 
2269 1048 757 1166 
2270 527 528 1147 
2271 650 1052 1120 
2272 694 691 1154 
2273 851 849 1198 
2274 92 170 1142 
2275 1133 535 1145 
2276 281 268 1197 
2277 112 113 1186 
2278 14 840 1164 
2279 347 338 1180 
2280 912 162 1166 
2281 902 904 1199 
2282 85 86 1173 
2283 702 640 1148 
2284 764 1064 1075 
2285 680 1055 1103 
2286 208 211 1157 
2287 1141 142 1188 
2288 744 899 1153 
2289 504 470 1150 
2290 666 1024 1099 
2291 1157 211 1179 
2292 909 911 1187 
2293 193 1042 1099 
2294 1097 181 1195 
2295 211 213 1179 
2296 381 414 1169 
2297 1177 931 1190 
2298 608 1006 1198 
2299 935 588 1149 
2300 1079 648 1135 
2301 931 784 1190 
2302 516 511 1163 
2303 616 755 1159 
2304 181 178 1195 
2305 1008 169 1144 
2306 721 662 1152 
2307 132 893 1151 
2308 640 998 1132 
2309 142 882 1188 
2310 561 1031 1199 
2311 709 708 1158 
2312 445 1177 1190 
2313 727 729 1184 
2314 1021 653 1156 
2315 687 1038 1164 
2316 146 41 1194 
2317 165 982 1183 
2318 497 465 1178 
2319 889 890 1174 
2320 964 207 1162 
2321 919 445 1190 
2322 445 935 1177 
2323 756 1071 1084 
2324 1059 717 1150 
2325 750 1094 1141 
2326 656 525 1185 
2327 664 1096 1107 
2328 1058 622 1171 
2329 535 1010 1145 
2330 999 670 1192 
2331 583 1021 1156 
2332 935 1149 1177 
2333 986 677 1167 
2334 1149 779 1177 
2335 971 641 1181 
2336 990 891 1176 
2337 191 941 1200 
2338 457 987 1201 
2339 1116 574 1135 
2340 1006 851 1198 
2341 683 1129 1160 
2342 1092 912 1166 
2343 715 1145 1172 
2344 138 1034 1139 
2345 467 1089 1106 
2346 1074 621 1182 
2347 993 751 1183 
2348 1010 856 1172 
2349 1031 479 1170 
2350 1145 1010 1172 
2351 622 1081 1123 
2352 653 1095 1156 
2353 714 1085 1133 
2354 1050 607 1168 
2355 1025 903 1170 
2356 760 1093 1162 
2357 1065 43 1143 
2358 1031 902 1199 
2359 872 1087 1169 
2360 607 1067 1168 
2361 648 1116 1135 
2362 729 1065 1184 
2363 757 1092 1166 
2364 827 1131 1176 
2365 621 1083 1174 
2366 526 1074 1182 
2367 1095 910 1156 
2368 670 1077 1192 
2369 527 1147 1189 
$EndElements
